<svg xmlns="http://www.w3.org/2000/svg" width="200" height="200" fill="none" viewBox="0 0 200 200"><g clip-path="url(#a)"><path fill="#edeee3" d="M99.91 199.821c55.179 0 99.91-44.731 99.91-99.91S155.089 0 99.91 0 0 44.731 0 99.91s44.731 99.91 99.91 99.91"/><path fill="#e91200" d="M39.934 63.845c.362-2.288.538-4.592 1.119-6.846C44.56 43.408 63.123 39 73.83 40.582c2.826.42 4.138 1.682 3.978 4.062-.109 1.623-.211 3.255-.454 4.87-.42 2.809-1.455 5.391-5.29 6.165-17.25 3.465-5.316 12.254-5.349 17.721-.034 5.492-1.362 8.915-4.272 13.81-5.114 8.613-16.401 11.22-27.335 12.877-2.969.446-4.744-.875-4.71-3.246.084-5.534.395-11.077.85-16.611.084-1.001.833-2.733 1.985-2.902 15.013-2.212 6.409-7.132 6.754-11.75.042-.572.093-1.152.143-1.724-.059 0-.126 0-.185-.008zm43.946 50.716c-1.968 3.516-4.752 7.115-8.049 9.185-3.44 2.17-6.905 3.919-10.354 5.542-1.657.782-2.809 1.926-3.398 4.155-.992 3.76-1.859 7.519-2.826 11.279-.723 2.809-1.43 5.635-2.363 8.436-.235.706-1.539 1.96-1.976 1.893-2.851-.404-5.778-.707-8.318-1.825-1.783-.782-1.178-4.138-.74-6.897.547-3.457 1.43-7.014 1.918-10.446.168-1.169-.143-2.624-.74-2.977-.42-.252-1.884.874-2.531 1.816-2.91 4.231-5.736 8.571-8.512 12.961-1.203 1.9-2.044 2.447-3.044 1.413-.623-.648-1.363-1.346-2.237-1.312-3.398.109-5.063-2.776-7.031-5.164-.782-.959 0-2.019.824-3.095 5.038-6.476 10.135-12.851 15.08-19.462 3.532-4.71 6.779-9.841 10.303-14.559 1.816-2.431 3.911-4.567 5.972-6.468.858-.79 2.043-.849 2.944-.799.706.042 1.253.673 1.775 1.203 3.928 4.004 9.79 3.575 14.668 5.391 3.036 1.127 6.047 2.372 8.797 4.079 1.699 1.051 1.497 2.229-.177 5.652zm-12.591-3.356c-1.833.109-3.44.404-4.895.244-4.096-.437-6.577 3.314-9.294 7.755-1.262 2.069-1.034 3.902.53 3.415a114 114 0 0 0 11.876-4.415c.841-.37 2.279-2.397 2.574-3.575.294-1.203-.488-2.296-.791-3.423m90.516 7.578c-1.926-2.296-13.693 2.313-18.133 2.153-4.441-.16-10.606 1.581-10.598 4.432 0 2.851-1.926 4.104-1.783 8.991.134 4.887-4.912 18.613-5.223 23.432-.311 4.828 2.439 3.911 4.525 3.852s5.004.715 5.004.715 4.155-9.454 5.232-12.624c1.068-3.171 2.346-2.633 4.214-2.363s2.01 1.834 0 5.459c-2.01 3.633-2.54 4.626-2.725 9.47s12.734 3.491 14.256 2.641-.05-6.064.925-10.37c.967-4.306 2.986-9.26 2.641-13.23-.353-3.97 2.304-8.697 2.044-11.582-.252-2.885 1.564-8.68-.362-10.976zm-10.673 12.086c-.908 2.246-4.449 8.789-4.449 8.789l-2.742-.395c-1.135-1.707 0 0 1.64-4.399s6.459-6.241 5.551-3.995m-66.529-3.524s11.708-2.162 12.784.42-6.35 9.857-5.812 12.195-3.911 17.343-7.704 18.546-5.181-1.783-11.136-1.648-8.284.395-6.644-2.868.951-5.198 3.516-8.604 6.367-7.704 5.963-10.488c-.395-2.775.067-7.502 9.033-7.553"/><path fill="#e91200" d="M149.441 101.416c-13.894-4.289-29.925 1.026-29.925 1.026l-.547.412c-4.315 0-8.453-.21-12.608 1.186-5.139 1.724-5.812.261-11.237.311-.782 0-1.943 1.017-2.212 1.976-.732 2.599-1.329 5.383-1.531 8.167-.261 3.583.967 5.114 3.558 4.887 3.642-.328 2.254-.799 5.896-1.001 1.816-.101 3.659.454 5.122.664-.774 4.601-1.026 8.915-2.22 12.624-1.951 6.047-4.601 11.624-6.787 17.528-1.152 3.112-1.959 4.298-2.683 7.662-.378 1.766.438 3.423 2.002 3.238 5.156-.622 10.16.639 15.324.076 1.993-.218 2.809-1.362 2.868-4.138.05-2.633.118-5.391.724-7.83.858-3.473 6.956-15.148 6.745-15.332.647-2.616 1.303-5.223 1.943-7.839.168-.698.505-1.867.908-3.179 1.262-4.155 5.299-7.073 9.95-7.208 2.355-.067 4.701-.118 6.796-.109 8.671.009 3.575-.437 8.125-7.107 4.55-6.678-.211-5.997-.211-5.997zm-30.312-11.809c.446.908.421 1.732.9 2.304.647.774 1.775 1.943 2.531 1.934 3.869-.042 7.696-.336 11.489-.732.715-.075 1.607-.9 1.699-1.522.378-2.633.378-5.341.74-7.982.177-1.329.833-2.565 1.362-4.104.597.555.782.656.808.757.42 2.422.673 4.853 1.278 7.258.841 3.339 2.237 5.543 6.871 5.021.95-.109 1.943-.05 2.927-.059 4.323-.009 5.534-.883 6.131-4.348.404-2.38.799-4.76 1.312-7.115.631-2.919 1.405-5.804 2.077-8.705.488-2.077.976-4.037 2.868-5.643 4.912-4.147 6.569-9.723 7.385-15.552.261-1.867-1.615-3.146-3.944-3.129-2.195.017-4.508.236-6.594-.311-2.237-.589-3.053.261-3.768 1.337-.606.908-.782 2.035-1.178 3.053-.984 2.557-1.926 5.122-3.028 7.637-.219.504-1.094 1.119-1.632 1.043-.581-.084-1.169-.883-1.657-1.421-.236-.261-.252-.648-.362-.984-1.219-3.625-2.388-7.267-3.717-10.875-.227-.614-1.186-1.581-1.741-1.607-2.809-.118-5.635-.126-8.36.16-.715.076-1.363 1.262-1.539 2.061-.454 2.103-.378 4.34-.984 6.384-.808 2.733-2.263 5.273-3.062 8.007-.732 2.481-.849 5.13-1.464 7.654-.496 2.01-1.505 3.894-1.985 5.904-.992 4.197-1.32 8.596-5.122 11.884m-30.825 3.339c0 1.211-.538 2.288-.976 3.339s-1.203 1.875-2.027 2.692c-.824.816-1.506 1.8-2.599 2.254s-2.22.942-3.432.942-2.464-.295-3.516-.732c-1.093-.454-1.825-1.505-2.649-2.322-.824-.824-1.295-1.8-1.749-2.893-.437-1.051-.622-2.069-.622-3.28s-.017-2.313.412-3.364a8.7 8.7 0 0 1 1.901-2.86c.824-.824 1.606-1.85 2.691-2.296s2.321-.336 3.532-.336 2.347.21 3.398.647 1.901 1.27 2.717 2.086c.824.824 1.228 1.8 1.674 2.893s1.236 2.018 1.236 3.23z"/><path fill="#e91200" d="M122.956 29.328c-2.254-2.733-18.167 5.787-23.954 6.426s-9.967 3.7-10.286 7.553c-.32 3.861-7.073 6.426-7.46 13.02s-4.92 10.766-5.879 17.359c-.967 6.594 2.733 4.819 5.467 4.34s6.46 0 6.46 0 2.868 1.766 4.634-2.733 3.373-4.02 5.786-4.02 2.414 2.086-.639 7.393-3.861 10.934-4.66 17.52c-.807 6.594 16.233 2.254 18.327.807 2.086-1.446.639-12.381 2.414-18.386 1.766-6.014 4.979-13.121 4.979-18.419s4.02-12.213 4.02-16.073 3.053-12.053.808-14.786zm-20.413 20.093c-1.446 3.213-1.766 11.094-1.766 11.094h-3.532c-1.287-2.086 0 0 2.649-6.266s4.096-8.041 2.649-4.819z"/></g><defs><clipPath id="a"><path fill="#fff" d="M0 0h199.812v199.812H0z"/></clipPath></defs></svg>