<?xml version='1.0' encoding='utf-8'?>
<svg xmlns="http://www.w3.org/2000/svg" width="1304" height="780" viewBox="0 0 1304 780" role="img" aria-label="HDT colorful brush logo">
  <title>HDT Color Brush Logo</title>
  <desc>Vectorized letter-only logo in a unified blue brush palette: bright blue bodies, mid-blue overlaps, and restrained dark-blue accents.</desc>
  <path id="logo-part-001" class="logo-part logo-teal" data-layer="teal" d="M 155.00 740.50 L 155.50 736.00 L 152.50 731.00 L 155.50 729.00 L 155.50 724.00 L 153.00 722.50 L 153.50 726.00 L 149.50 727.00 L 150.50 713.00 L 147.50 711.00 L 149.50 710.00 L 147.50 707.00 L 157.50 627.00 L 158.50 614.00 L 157.00 612.50 L 154.50 616.00 L 151.50 647.00 L 138.50 707.00 L 135.00 710.50 L 119.00 710.50 L 116.50 699.00 L 116.50 683.00 L 119.00 674.50 L 123.50 681.00 L 126.00 692.50 L 128.50 686.00 L 127.50 679.00 L 130.50 636.00 L 138.50 584.00 L 138.50 573.00 L 144.50 541.00 L 147.50 515.00 L 146.50 504.00 L 148.50 501.00 L 149.50 486.00 L 147.50 488.00 L 145.50 499.00 L 143.00 500.50 L 140.00 497.50 L 136.50 505.00 L 124.50 594.00 L 123.50 597.00 L 120.50 598.00 L 107.50 675.00 L 103.50 691.00 L 101.00 693.50 L 94.50 687.00 L 95.50 661.00 L 104.50 605.00 L 105.50 582.00 L 116.50 488.00 L 121.50 464.00 L 120.00 462.50 L 116.00 464.50 L 94.00 480.50 L 91.00 477.50 L 88.00 478.50 L 77.00 490.50 L 71.00 492.50 L 62.00 499.50 L 53.50 521.00 L 50.00 523.50 L 50.50 518.00 L 46.50 514.00 L 48.50 503.00 L 54.50 497.00 L 56.50 487.00 L 62.50 476.00 L 78.50 462.00 L 80.50 459.00 L 79.00 457.50 L 58.50 476.00 L 56.50 484.00 L 44.50 502.00 L 40.50 522.00 L 43.50 542.00 L 46.50 548.00 L 54.00 555.50 L 56.50 556.00 L 55.00 551.50 L 58.00 554.50 L 61.00 554.50 L 62.00 551.50 L 64.00 555.50 L 75.00 560.50 L 76.50 563.00 L 72.00 566.50 L 56.00 568.50 L 40.00 558.50 L 29.50 546.00 L 23.50 523.00 L 25.50 509.00 L 32.50 488.00 L 46.50 457.00 L 55.50 444.00 L 74.00 423.50 L 107.00 400.50 L 131.00 388.50 L 133.50 385.00 L 153.50 230.00 L 159.50 167.00 L 161.50 104.00 L 172.00 92.50 L 180.00 90.50 L 185.50 95.00 L 187.50 119.00 L 189.00 120.50 L 191.50 118.00 L 194.50 107.00 L 198.00 103.50 L 209.00 102.50 L 212.50 106.00 L 218.00 118.50 L 223.00 110.50 L 229.00 108.50 L 236.50 125.00 L 238.50 137.00 L 237.50 192.00 L 232.50 226.00 L 225.50 306.00 L 217.50 357.00 L 220.00 359.50 L 231.00 359.50 L 287.00 349.50 L 339.00 345.50 L 345.00 343.50 L 347.50 339.00 L 351.50 300.00 L 361.50 236.00 L 385.50 114.00 L 394.50 77.00 L 401.50 61.00 L 407.00 58.50 L 413.00 51.50 L 418.00 53.50 L 424.00 46.50 L 437.00 46.50 L 449.50 57.00 L 453.50 75.00 L 455.00 76.50 L 459.00 74.50 L 466.50 87.00 L 447.50 188.00 L 427.50 320.00 L 429.00 321.50 L 433.00 320.50 L 448.00 312.50 L 473.50 290.00 L 479.50 278.00 L 478.50 264.00 L 480.00 262.50 L 484.50 264.00 L 493.50 276.00 L 494.50 288.00 L 496.00 289.50 L 497.50 288.00 L 500.00 280.50 L 502.50 281.00 L 502.50 288.00 L 500.50 296.00 L 490.50 316.00 L 486.50 311.00 L 489.50 304.00 L 490.00 293.50 L 475.50 316.00 L 474.50 322.00 L 476.00 323.50 L 479.00 322.50 L 479.50 326.00 L 477.50 330.00 L 478.50 332.00 L 473.50 339.00 L 450.00 360.50 L 420.50 379.00 L 408.50 523.00 L 409.50 639.00 L 411.50 656.00 L 418.50 684.00 L 416.50 701.00 L 410.50 706.00 L 410.50 709.00 L 405.50 713.00 L 401.00 720.50 L 391.00 724.50 L 375.00 723.50 L 362.00 710.50 L 357.00 712.50 L 352.50 707.00 L 349.50 697.00 L 345.50 691.00 L 335.50 656.00 L 331.50 627.00 L 329.50 572.00 L 333.50 457.00 L 335.50 453.00 L 335.50 440.00 L 338.50 422.00 L 338.50 410.00 L 336.50 408.00 L 348.50 401.00 L 342.50 399.00 L 344.00 395.50 L 335.00 395.50 L 337.00 398.50 L 330.00 397.50 L 328.00 399.50 L 323.00 398.50 L 314.00 400.50 L 312.50 402.00 L 313.50 407.00 L 307.50 411.00 L 312.00 413.50 L 233.00 424.50 L 219.00 427.50 L 209.50 432.00 L 179.50 632.00 L 169.50 676.00 L 163.50 720.00 L 156.50 730.00 L 156.50 739.00 L 155.00 740.50 Z     M 400.50 680.00 L 401.50 676.00 L 393.50 623.00 L 392.50 551.00 L 390.00 539.50 L 387.50 543.00 L 383.50 560.00 L 383.50 587.00 L 391.50 663.00 L 395.50 678.00 L 400.50 680.00 Z     M 392.50 342.00 L 395.50 334.00 L 411.50 240.00 L 420.50 179.00 L 420.00 171.50 L 418.50 172.00 L 410.50 207.00 L 395.50 289.00 L 389.50 333.00 L 389.50 340.00 L 392.50 342.00 Z     M 426.50 218.00 L 429.50 209.00 L 439.50 150.00 L 445.50 128.00 L 446.50 115.00 L 445.00 113.50 L 441.50 121.00 L 429.50 180.00 L 424.50 215.00 L 426.50 218.00 Z     M 262.50 373.00 L 280.00 370.50 L 294.50 365.00 L 290.00 362.50 L 273.00 364.50 L 250.50 371.00 L 252.00 373.50 L 262.50 373.00 Z     M 176.50 274.00 L 181.50 238.00 L 182.50 218.00 L 181.00 216.50 L 178.50 225.00 L 174.50 268.00 L 174.50 273.00 L 176.50 274.00 Z     M 377.50 432.00 L 383.00 396.50 L 379.50 397.00 L 376.50 416.00 L 375.50 432.00 L 377.50 432.00 Z     M 91.50 430.00 L 115.50 413.00 L 114.00 411.50 L 104.00 417.50 L 89.50 429.00 L 91.50 430.00 Z     M 156.50 721.00 L 157.00 704.50 L 153.50 706.00 L 153.50 719.00 L 151.50 720.00 L 156.50 721.00 Z     M 186.50 171.00 L 188.50 167.00 L 188.50 154.00 L 187.00 152.50 L 184.50 162.00 L 184.50 170.00 L 186.50 171.00 Z     M 182.50 216.00 L 184.50 207.00 L 183.00 203.50 L 180.50 209.00 L 180.50 215.00 L 182.50 216.00 Z     M 459.50 341.00 L 462.50 336.00 L 462.00 333.50 L 456.50 338.00 L 458.00 341.50 L 459.50 341.00 Z     M 83.50 476.00 L 89.00 466.50 L 81.50 473.00 L 83.50 476.00 Z     M 157.50 687.00 L 158.00 679.50 L 154.50 686.00 L 157.50 687.00 Z     M 151.50 706.00 L 152.50 698.00 L 151.00 694.50 L 149.50 705.00 L 151.50 706.00 Z     M 158.50 701.00 L 157.00 696.50 L 153.50 699.00 L 158.50 701.00 Z     M 157.50 694.00 L 158.00 687.50 L 154.50 691.00 L 155.50 694.00 L 157.50 694.00 Z     M 50.50 562.00 L 48.00 558.50 L 44.50 559.00 L 50.50 562.00 Z     M 161.50 627.00 L 163.00 621.50 L 160.50 625.00 L 161.50 627.00 Z     M 352.50 401.00 L 351.00 398.50 L 349.50 400.00 L 350.00 401.50 L 352.50 401.00 Z     M 335.50 516.00 L 334.00 513.50 L 333.50 516.00 L 335.50 516.00 Z" fill="#269be3" fill-rule="evenodd" />
  <path id="logo-part-002" class="logo-part logo-teal" data-layer="teal" d="M 119.00 666.50 L 119.00 655.50 L 119.00 666.50 Z" fill="#269be3" fill-rule="evenodd" />
  <path id="logo-part-003" class="logo-part logo-teal" data-layer="teal" d="M 150.00 745.50 L 148.50 745.00 L 149.50 740.00 L 147.50 736.00 L 149.00 732.50 L 150.00 734.50 L 152.00 732.50 L 153.50 740.00 L 150.00 745.50 Z" fill="#269be3" fill-rule="evenodd" />
  <path id="logo-part-004" class="logo-part logo-blue-detail" data-layer="blue-detail" d="M 123.00 713.50 L 121.00 713.50 L 118.50 710.00 L 116.50 696.00 L 120.50 630.00 L 124.50 593.00 L 122.50 583.00 L 124.50 578.00 L 131.50 521.00 L 137.50 495.00 L 137.50 489.00 L 139.50 485.00 L 139.50 479.00 L 141.50 475.00 L 143.50 453.00 L 145.50 451.00 L 145.50 448.00 L 142.00 444.50 L 122.00 453.50 L 119.50 457.00 L 123.50 458.00 L 123.00 462.50 L 114.00 465.50 L 90.00 482.50 L 64.50 507.00 L 61.50 514.00 L 58.50 516.00 L 59.50 518.00 L 54.50 529.00 L 55.50 542.00 L 65.00 556.50 L 73.00 559.50 L 75.50 562.00 L 75.00 564.50 L 67.00 567.50 L 64.00 566.50 L 57.00 568.50 L 38.00 556.50 L 29.50 545.00 L 24.50 529.00 L 24.50 517.00 L 27.50 503.00 L 31.50 491.00 L 41.50 471.00 L 41.50 468.00 L 54.50 446.00 L 61.50 437.00 L 74.00 424.50 L 99.00 406.50 L 103.50 406.00 L 101.50 411.00 L 104.50 412.00 L 104.50 416.00 L 88.00 427.50 L 79.50 437.00 L 81.00 438.50 L 88.00 435.50 L 92.00 431.50 L 96.00 430.50 L 101.00 426.50 L 109.00 427.50 L 111.00 429.50 L 146.00 412.50 L 191.00 398.50 L 216.00 394.50 L 219.00 394.50 L 221.50 397.00 L 219.00 400.50 L 204.00 404.50 L 176.00 416.50 L 167.00 418.50 L 153.50 426.00 L 157.00 428.50 L 183.00 419.50 L 184.00 420.50 L 207.00 414.50 L 225.00 412.50 L 236.00 409.50 L 252.00 409.50 L 265.00 407.50 L 267.50 417.00 L 266.00 418.50 L 264.00 417.50 L 257.00 420.50 L 251.00 420.50 L 242.00 423.50 L 237.00 422.50 L 232.00 424.50 L 225.00 424.50 L 223.00 426.50 L 219.00 426.50 L 217.50 425.00 L 219.50 424.00 L 217.00 422.50 L 193.00 426.50 L 156.00 438.50 L 151.50 443.00 L 147.50 462.00 L 149.50 471.00 L 153.50 477.00 L 153.50 481.00 L 142.50 572.00 L 138.50 594.00 L 139.50 595.00 L 137.50 602.00 L 138.50 603.00 L 136.50 608.00 L 137.50 609.00 L 134.50 627.00 L 134.50 644.00 L 139.00 643.50 L 140.00 646.50 L 144.50 646.00 L 143.50 643.00 L 147.50 641.00 L 144.50 635.00 L 147.00 634.50 L 149.50 631.00 L 148.50 627.00 L 152.00 616.50 L 154.50 618.00 L 153.50 630.00 L 149.50 657.00 L 138.50 706.00 L 135.00 710.50 L 128.00 709.50 L 123.00 713.50 Z     M 100.50 437.00 L 102.50 435.00 L 100.00 430.50 L 98.50 436.00 L 100.50 437.00 Z     M 108.50 432.00 L 109.00 430.50 L 105.50 431.00 L 108.50 432.00 Z     M 144.50 433.00 L 145.00 430.50 L 142.50 432.00 L 144.50 433.00 Z" fill="#0a63a8" fill-rule="evenodd" />
  <path id="logo-part-005" class="logo-part logo-blue-detail" data-layer="blue-detail" d="M 101.00 693.50 L 95.50 688.00 L 94.50 685.00 L 95.50 664.00 L 104.50 608.00 L 107.50 572.00 L 111.00 570.50 L 109.50 594.00 L 110.50 597.00 L 117.00 602.50 L 118.00 599.50 L 120.50 601.00 L 119.50 608.00 L 117.50 611.00 L 118.50 613.00 L 115.50 624.00 L 107.50 674.00 L 104.50 687.00 L 101.00 693.50 Z" fill="#0a63a8" fill-rule="evenodd" />
  <path id="logo-part-006" class="logo-part logo-blue-detail" data-layer="blue-detail" d="M 111.00 562.50 L 109.50 562.00 L 111.00 555.50 L 111.00 562.50 Z" fill="#0a63a8" fill-rule="evenodd" />
  <path id="logo-part-007" class="logo-part logo-blue-detail" data-layer="blue-detail" d="M 149.00 755.50 L 147.00 755.50 L 143.50 752.00 L 143.50 748.00 L 148.50 709.00 L 150.50 677.00 L 152.50 670.00 L 157.50 620.00 L 159.50 612.00 L 157.50 609.00 L 160.50 607.00 L 165.50 597.00 L 167.50 589.00 L 172.50 565.00 L 175.50 529.00 L 176.50 525.00 L 178.00 524.50 L 176.50 554.00 L 172.50 574.00 L 173.50 577.00 L 170.50 595.00 L 171.50 601.00 L 168.50 608.00 L 169.50 609.00 L 167.50 613.00 L 167.50 620.00 L 163.50 640.00 L 163.50 674.00 L 167.00 672.50 L 170.00 668.50 L 171.50 670.00 L 167.50 685.00 L 167.50 694.00 L 163.50 719.00 L 156.50 730.00 L 154.50 748.00 L 152.50 753.00 L 151.00 752.50 L 149.00 755.50 Z" fill="#0a63a8" fill-rule="evenodd" />
  <path id="logo-part-008" class="logo-part logo-blue-detail" data-layer="blue-detail" d="M 155.00 607.50 L 153.50 607.00 L 153.50 605.00 L 157.00 604.50 L 157.50 606.00 L 155.00 607.50 Z" fill="#0a63a8" fill-rule="evenodd" />
  <path id="logo-part-009" class="logo-part logo-blue-detail" data-layer="blue-detail" d="M 171.00 661.50 L 171.50 659.00 L 169.50 655.00 L 172.50 649.00 L 173.50 638.00 L 175.00 637.50 L 176.50 644.00 L 173.50 658.00 L 171.00 661.50 Z" fill="#0a63a8" fill-rule="evenodd" />
  <path id="logo-part-010" class="logo-part logo-blue-detail" data-layer="blue-detail" d="M 388.00 724.50 L 378.00 724.50 L 374.00 722.50 L 371.50 718.00 L 365.50 714.00 L 363.00 707.50 L 361.50 708.00 L 360.50 712.00 L 358.00 712.50 L 353.50 708.00 L 351.50 700.00 L 346.50 693.00 L 347.50 692.00 L 342.50 680.00 L 337.50 658.00 L 335.50 655.00 L 332.50 636.00 L 329.50 566.00 L 331.50 537.00 L 330.50 532.00 L 332.50 518.00 L 332.50 493.00 L 335.00 490.50 L 338.00 492.50 L 351.00 494.50 L 357.00 492.50 L 362.00 488.50 L 364.00 489.50 L 367.50 484.00 L 377.50 399.00 L 371.00 398.50 L 362.00 400.50 L 340.00 408.50 L 335.00 407.50 L 329.00 409.50 L 316.00 410.50 L 312.00 413.50 L 298.00 413.50 L 297.00 411.50 L 293.00 410.50 L 290.00 414.50 L 285.00 414.50 L 285.50 412.00 L 287.50 411.00 L 282.50 408.00 L 285.00 407.50 L 286.00 405.50 L 293.00 405.50 L 296.00 402.50 L 310.00 400.50 L 336.00 392.50 L 352.00 389.50 L 366.00 382.50 L 400.00 370.50 L 406.00 365.50 L 411.00 364.50 L 425.00 357.50 L 457.00 335.50 L 467.50 325.00 L 479.50 308.00 L 483.50 299.00 L 492.00 290.50 L 491.50 305.00 L 489.50 310.00 L 490.50 315.00 L 484.50 325.00 L 477.50 332.00 L 471.50 341.00 L 452.00 358.50 L 435.00 370.50 L 424.00 375.50 L 420.50 379.00 L 413.50 446.00 L 412.50 475.00 L 409.50 500.00 L 409.50 520.00 L 407.50 529.00 L 409.50 641.00 L 411.50 657.00 L 417.50 679.00 L 418.50 688.00 L 416.50 691.00 L 416.50 700.00 L 414.00 702.50 L 412.00 701.50 L 410.50 703.00 L 410.50 707.00 L 405.50 709.00 L 406.50 711.00 L 403.50 714.00 L 402.50 718.00 L 400.00 720.50 L 395.00 717.50 L 394.50 722.00 L 388.00 724.50 Z     M 401.50 680.00 L 394.50 632.00 L 395.50 630.00 L 393.50 614.00 L 393.50 565.00 L 391.00 522.50 L 388.50 542.00 L 383.50 559.00 L 383.50 591.00 L 392.50 669.00 L 396.50 680.00 L 401.50 680.00 Z     M 391.50 515.00 L 392.00 505.50 L 390.50 513.00 L 391.50 515.00 Z" fill="#0a63a8" fill-rule="evenodd" />
  <path id="logo-part-011" class="logo-part logo-blue-detail" data-layer="blue-detail" d="M 323.00 384.50 L 311.50 384.00 L 319.00 380.50 L 353.00 372.50 L 377.00 364.50 L 403.00 354.50 L 426.00 342.50 L 432.00 340.50 L 440.50 341.00 L 432.00 348.50 L 405.00 362.50 L 390.00 368.50 L 358.00 378.50 L 323.00 384.50 Z" fill="#0a63a8" fill-rule="evenodd" />
  <path id="logo-part-012" class="logo-part logo-blue-detail" data-layer="blue-detail" d="M 383.00 345.50 L 381.50 342.00 L 386.50 340.00 L 389.50 327.00 L 393.50 288.00 L 397.50 275.00 L 405.50 222.00 L 411.50 199.00 L 412.50 185.00 L 421.50 151.00 L 424.00 147.50 L 426.00 147.50 L 426.50 166.00 L 424.50 168.00 L 423.50 179.00 L 425.00 181.50 L 427.50 181.00 L 427.50 188.00 L 426.00 191.50 L 424.50 190.00 L 425.50 187.00 L 424.00 186.50 L 422.50 191.00 L 425.50 195.00 L 422.50 196.00 L 424.50 200.00 L 422.50 211.00 L 423.50 214.00 L 419.50 222.00 L 420.50 229.00 L 419.00 231.50 L 416.50 229.00 L 413.50 247.00 L 414.50 249.00 L 410.50 256.00 L 412.50 257.00 L 412.50 259.00 L 408.50 266.00 L 409.50 270.00 L 406.50 280.00 L 407.50 287.00 L 405.50 289.00 L 406.50 296.00 L 405.00 292.50 L 395.50 342.00 L 393.00 344.50 L 386.00 343.50 L 383.00 345.50 Z" fill="#0a63a8" fill-rule="evenodd" />
  <path id="logo-part-013" class="logo-part logo-blue-detail" data-layer="blue-detail" d="M 426.00 320.50 L 421.50 320.00 L 423.50 313.00 L 417.50 308.00 L 417.50 305.00 L 419.50 303.00 L 416.00 301.50 L 413.50 305.00 L 415.50 293.00 L 419.00 292.50 L 421.00 298.50 L 423.50 293.00 L 421.50 292.00 L 423.50 289.00 L 417.50 287.00 L 417.50 285.00 L 421.50 281.00 L 415.50 270.00 L 418.50 267.00 L 417.50 266.00 L 422.50 263.00 L 423.50 242.00 L 425.50 239.00 L 425.50 232.00 L 427.50 230.00 L 430.50 202.00 L 433.50 196.00 L 432.50 191.00 L 437.50 176.00 L 439.50 158.00 L 447.50 125.00 L 450.50 104.00 L 449.50 101.00 L 453.50 92.00 L 455.50 81.00 L 459.00 78.50 L 465.50 86.00 L 464.50 101.00 L 460.50 114.00 L 459.50 124.00 L 457.50 127.00 L 455.50 148.00 L 445.50 198.00 L 437.50 258.00 L 426.00 320.50 Z" fill="#0a63a8" fill-rule="evenodd" />
  <path id="logo-part-014" class="logo-part logo-orange" data-layer="orange" d="M 533.00 707.50 L 531.50 703.00 L 528.00 701.50 L 524.00 695.50 L 518.00 694.50 L 517.50 697.00 L 522.50 700.00 L 525.00 705.50 L 521.50 704.00 L 519.00 698.50 L 515.00 698.50 L 512.50 696.00 L 513.00 694.50 L 523.00 692.50 L 526.50 688.00 L 525.00 686.50 L 516.00 685.50 L 508.00 678.50 L 495.00 676.50 L 479.50 666.00 L 472.50 654.00 L 471.50 646.00 L 473.50 640.00 L 477.00 637.50 L 483.00 638.50 L 494.00 651.50 L 498.00 653.50 L 501.00 652.50 L 508.00 656.50 L 568.00 650.50 L 592.00 642.50 L 601.00 636.50 L 630.00 625.50 L 668.00 600.50 L 688.00 584.50 L 693.50 578.00 L 692.00 576.50 L 657.00 600.50 L 597.00 635.50 L 575.00 643.50 L 550.50 648.00 L 555.50 646.00 L 549.50 641.00 L 558.50 634.00 L 559.50 629.00 L 563.00 633.50 L 567.50 631.00 L 566.50 622.00 L 563.50 619.00 L 559.50 605.00 L 559.50 580.00 L 556.50 570.00 L 557.00 562.50 L 559.00 562.50 L 563.50 569.00 L 563.50 574.00 L 568.50 583.00 L 569.50 591.00 L 573.50 596.00 L 575.50 612.00 L 574.00 626.50 L 581.50 621.00 L 582.00 613.50 L 585.00 617.50 L 600.00 610.50 L 648.00 583.50 L 679.00 562.50 L 725.00 522.50 L 756.50 487.00 L 788.50 432.00 L 798.50 406.00 L 805.50 379.00 L 805.50 325.00 L 801.50 304.00 L 791.00 267.50 L 801.50 297.00 L 804.50 313.00 L 807.50 312.00 L 805.50 310.00 L 806.00 294.50 L 810.00 295.50 L 813.50 299.00 L 814.00 302.50 L 817.00 300.50 L 818.00 306.50 L 822.50 301.00 L 819.50 300.00 L 819.50 284.00 L 810.50 262.00 L 808.50 261.00 L 808.50 257.00 L 802.50 243.00 L 792.50 230.00 L 792.50 227.00 L 786.50 218.00 L 769.50 196.00 L 759.00 185.50 L 740.00 173.50 L 736.00 168.50 L 735.00 169.50 L 723.00 159.50 L 694.00 147.50 L 688.00 147.50 L 668.00 141.50 L 649.50 140.00 L 657.00 142.50 L 658.00 144.50 L 664.00 144.50 L 666.00 147.50 L 673.00 147.50 L 673.00 150.50 L 671.00 148.50 L 665.00 149.50 L 659.00 145.50 L 652.00 146.50 L 650.00 144.50 L 647.00 146.50 L 638.00 143.50 L 628.00 144.50 L 616.00 142.50 L 613.50 146.00 L 617.50 148.00 L 613.00 148.50 L 609.50 152.00 L 612.00 154.50 L 619.00 152.50 L 650.00 154.50 L 652.00 152.50 L 662.50 156.00 L 633.00 155.50 L 624.00 153.50 L 598.00 158.50 L 539.00 184.50 L 522.00 199.50 L 504.00 219.50 L 497.00 223.50 L 491.00 222.50 L 484.00 230.50 L 479.00 228.50 L 477.50 224.00 L 495.50 192.00 L 492.50 188.00 L 494.50 183.00 L 506.00 168.50 L 524.00 152.50 L 542.00 140.50 L 590.00 116.50 L 611.00 109.50 L 631.00 105.50 L 691.00 103.50 L 725.00 108.50 L 754.00 117.50 L 765.00 122.50 L 789.00 138.50 L 813.00 157.50 L 828.50 173.00 L 854.50 208.00 L 868.50 237.00 L 883.50 280.00 L 892.50 327.00 L 892.50 369.00 L 886.50 410.00 L 882.50 424.00 L 856.50 485.00 L 855.00 480.50 L 841.00 470.50 L 834.00 470.50 L 831.50 473.00 L 827.50 482.00 L 815.50 497.00 L 817.00 499.50 L 822.00 493.50 L 825.50 494.00 L 829.50 499.00 L 827.50 502.00 L 827.50 509.00 L 822.50 513.00 L 820.50 517.00 L 821.50 520.00 L 818.00 523.50 L 813.50 524.00 L 813.50 528.00 L 807.50 533.00 L 808.50 534.00 L 803.00 539.50 L 797.50 541.00 L 799.50 547.00 L 793.50 550.00 L 791.50 559.00 L 783.50 566.00 L 784.00 568.50 L 779.50 569.00 L 777.50 575.00 L 773.50 576.00 L 774.00 578.50 L 763.00 582.50 L 762.00 586.50 L 758.00 583.50 L 757.00 586.50 L 749.00 587.50 L 747.00 580.50 L 740.00 579.50 L 729.50 571.00 L 728.50 564.00 L 746.50 548.00 L 747.50 535.00 L 754.50 531.00 L 757.50 521.00 L 756.50 517.00 L 766.50 507.00 L 765.50 503.00 L 768.00 500.50 L 775.00 499.50 L 776.00 495.50 L 782.50 497.00 L 782.00 501.50 L 784.50 501.00 L 784.00 498.50 L 791.00 500.50 L 795.50 498.00 L 809.50 473.00 L 817.50 452.00 L 820.00 439.50 L 799.50 483.00 L 789.00 487.50 L 780.00 477.50 L 773.00 478.50 L 771.50 484.00 L 761.50 492.00 L 761.50 497.00 L 753.50 508.00 L 749.50 522.00 L 739.50 533.00 L 739.50 537.00 L 730.50 549.00 L 717.50 560.00 L 717.50 563.00 L 712.50 570.00 L 702.00 575.50 L 695.50 582.00 L 688.00 596.50 L 684.00 595.50 L 672.00 605.50 L 666.00 606.50 L 656.00 616.50 L 640.00 626.50 L 626.50 638.00 L 628.00 641.50 L 631.00 641.50 L 642.00 632.50 L 647.00 631.50 L 652.00 627.50 L 658.00 626.50 L 670.00 619.50 L 674.00 620.50 L 675.50 619.00 L 674.50 615.00 L 677.00 613.50 L 679.50 618.00 L 676.50 621.00 L 679.50 624.00 L 670.00 627.50 L 664.50 633.00 L 664.50 636.00 L 669.50 640.00 L 671.50 649.00 L 669.00 651.50 L 666.00 649.50 L 659.50 656.00 L 663.00 661.50 L 658.00 663.50 L 655.00 662.50 L 649.00 668.50 L 641.00 672.50 L 637.00 672.50 L 635.50 675.00 L 638.50 677.00 L 635.00 680.50 L 616.00 687.50 L 591.00 687.50 L 585.00 689.50 L 580.00 695.50 L 574.50 694.00 L 575.00 690.50 L 568.00 691.50 L 554.00 700.50 L 551.00 704.50 L 538.00 703.50 L 537.00 705.50 L 534.00 703.50 L 533.00 707.50 Z     M 537.50 695.00 L 540.00 691.50 L 546.00 692.50 L 566.00 688.50 L 582.00 681.50 L 591.00 681.50 L 603.00 674.50 L 613.00 674.50 L 619.50 670.00 L 620.50 666.00 L 613.00 664.50 L 602.00 670.50 L 577.00 677.50 L 565.00 677.50 L 563.50 676.00 L 563.50 672.00 L 575.50 663.00 L 573.00 660.50 L 558.00 666.50 L 512.00 666.50 L 510.50 668.00 L 512.00 682.50 L 526.00 683.50 L 541.00 680.50 L 543.50 683.00 L 538.00 687.50 L 531.00 688.50 L 527.50 692.00 L 529.00 694.50 L 537.50 695.00 Z     M 833.50 213.00 L 834.50 211.00 L 831.50 205.00 L 820.50 190.00 L 788.00 156.50 L 779.00 149.50 L 743.00 129.50 L 739.00 129.50 L 719.00 121.50 L 707.00 120.50 L 705.50 122.00 L 718.00 128.50 L 730.00 131.50 L 756.00 144.50 L 790.00 167.50 L 807.50 183.00 L 833.50 213.00 Z     M 639.50 662.00 L 647.00 658.50 L 652.00 653.50 L 659.00 652.50 L 663.50 646.00 L 663.50 643.00 L 659.00 640.50 L 648.00 649.50 L 643.00 649.50 L 638.00 652.50 L 634.50 657.00 L 634.50 660.00 L 636.00 662.50 L 639.50 662.00 Z     M 810.50 501.00 L 834.50 466.00 L 837.50 458.00 L 836.00 456.50 L 809.50 498.00 L 808.50 500.00 L 810.50 501.00 Z     M 765.50 554.00 L 794.50 518.00 L 797.50 513.00 L 796.00 511.50 L 786.50 521.00 L 781.50 531.00 L 765.50 549.00 L 763.50 552.00 L 764.00 554.50 L 765.50 554.00 Z     M 615.50 132.00 L 644.50 128.00 L 643.00 126.50 L 629.00 126.50 L 608.50 130.00 L 610.00 132.50 L 615.50 132.00 Z     M 508.50 172.00 L 532.50 152.00 L 526.00 153.50 L 517.00 160.50 L 515.50 164.00 L 506.50 171.00 L 508.50 172.00 Z     M 548.50 143.00 L 557.00 139.50 L 559.50 136.00 L 556.00 135.50 L 549.00 139.50 L 548.50 143.00 Z     M 534.50 152.00 L 546.50 144.00 L 543.00 143.50 L 534.00 148.50 L 534.50 152.00 Z     M 768.50 556.00 L 771.50 554.00 L 775.00 546.50 L 769.50 552.00 L 768.50 556.00 Z     M 598.50 146.00 L 603.50 144.00 L 598.00 141.50 L 595.50 144.00 L 598.50 146.00 Z     M 503.50 218.00 L 506.50 214.00 L 506.00 211.50 L 501.50 215.00 L 501.50 218.00 L 503.50 218.00 Z     M 592.50 159.00 L 593.00 156.50 L 586.50 159.00 L 592.50 159.00 Z     M 763.50 561.00 L 764.50 558.00 L 762.00 556.50 L 761.50 561.00 L 763.50 561.00 Z     M 494.50 207.00 L 494.00 201.50 L 491.50 204.00 L 492.50 207.00 L 494.50 207.00 Z     M 606.50 134.00 L 608.50 132.00 L 607.00 130.50 L 603.50 132.00 L 606.50 134.00 Z     M 575.50 165.00 L 577.00 162.50 L 571.50 165.00 L 575.50 165.00 Z     M 482.50 228.00 L 481.00 223.50 L 479.50 227.00 L 482.50 228.00 Z     M 807.50 511.00 L 809.50 510.00 L 810.00 506.50 L 806.50 510.00 L 807.50 511.00 Z     M 497.50 196.00 L 499.00 192.50 L 495.50 195.00 L 497.50 196.00 Z     M 582.50 690.00 L 581.00 688.50 L 577.50 690.00 L 582.50 690.00 Z     M 755.50 582.00 L 754.00 578.50 L 753.50 582.00 L 755.50 582.00 Z     M 751.50 580.00 L 750.00 577.50 L 749.50 580.00 L 751.50 580.00 Z     M 648.50 128.00 L 645.50 127.00 L 646.00 128.50 L 648.50 128.00 Z     M 812.50 311.00 L 809.50 310.00 L 810.00 311.50 L 812.50 311.00 Z     M 747.50 578.00 L 746.00 575.50 L 747.50 578.00 Z" fill="#2f9ff4" fill-rule="evenodd" />
  <path id="logo-part-015" class="logo-part logo-orange" data-layer="orange" d="M 542.00 413.50 L 535.50 397.00 L 535.50 378.00 L 532.50 373.00 L 536.50 360.00 L 534.00 359.50 L 533.00 363.50 L 532.50 359.00 L 536.50 339.00 L 542.50 327.00 L 543.50 312.00 L 551.50 291.00 L 551.50 281.00 L 555.50 277.00 L 556.50 270.00 L 565.00 249.50 L 565.50 255.00 L 560.50 268.00 L 565.50 261.00 L 565.50 257.00 L 569.00 253.50 L 573.00 254.50 L 574.50 257.00 L 571.50 261.00 L 572.50 265.00 L 569.50 271.00 L 571.50 277.00 L 574.00 275.50 L 574.50 278.00 L 571.50 283.00 L 569.50 295.00 L 566.50 300.00 L 559.50 325.00 L 550.50 378.00 L 542.00 413.50 Z" fill="#2f9ff4" fill-rule="evenodd" />
  <path id="logo-part-016" class="logo-part logo-orange" data-layer="orange" d="M 582.00 590.50 L 578.50 585.00 L 579.50 580.00 L 569.50 564.00 L 567.50 556.00 L 568.50 546.00 L 564.00 534.50 L 559.00 536.50 L 555.00 530.50 L 551.50 534.00 L 549.50 556.00 L 548.50 560.00 L 547.00 561.50 L 545.50 560.00 L 543.50 535.00 L 541.50 533.00 L 542.50 526.00 L 539.50 519.00 L 537.50 505.00 L 533.50 503.00 L 533.50 493.00 L 535.50 487.00 L 535.50 461.00 L 538.00 471.50 L 541.00 467.50 L 543.00 468.50 L 545.50 466.00 L 546.50 461.00 L 544.00 457.50 L 541.50 458.00 L 542.50 447.00 L 544.00 453.50 L 550.50 443.00 L 547.00 438.50 L 543.50 441.00 L 545.50 422.00 L 552.50 399.00 L 556.50 376.00 L 564.50 352.00 L 566.50 335.00 L 571.50 320.00 L 576.50 289.00 L 581.50 272.00 L 581.50 266.00 L 580.00 264.50 L 578.00 267.50 L 577.50 265.00 L 584.50 243.00 L 579.50 241.00 L 582.50 236.00 L 579.50 232.00 L 581.50 230.00 L 579.50 222.00 L 582.50 214.00 L 587.00 212.50 L 594.00 217.50 L 597.50 217.00 L 597.50 222.00 L 601.50 227.00 L 597.50 235.00 L 597.50 247.00 L 607.50 258.00 L 592.00 265.50 L 588.50 259.00 L 590.50 256.00 L 589.00 249.50 L 586.50 252.00 L 584.50 261.00 L 584.50 274.00 L 603.00 278.50 L 610.00 274.50 L 621.00 260.50 L 631.00 259.50 L 632.50 266.00 L 626.50 278.00 L 625.50 292.00 L 627.00 292.50 L 629.00 289.50 L 629.50 291.00 L 622.50 314.00 L 620.50 329.00 L 615.50 338.00 L 615.50 344.00 L 611.50 351.00 L 611.50 360.00 L 607.50 368.00 L 609.50 370.00 L 606.50 374.00 L 607.50 379.00 L 605.50 379.00 L 606.50 383.00 L 603.50 388.00 L 603.50 393.00 L 605.50 394.00 L 604.50 401.00 L 598.50 407.00 L 599.50 430.00 L 596.50 433.00 L 596.50 440.00 L 593.50 442.00 L 592.50 446.00 L 594.50 458.00 L 590.50 462.00 L 592.50 469.00 L 587.50 478.00 L 588.50 492.00 L 581.50 509.00 L 584.50 524.00 L 584.50 526.00 L 582.00 524.50 L 579.50 529.00 L 579.50 532.00 L 583.50 534.00 L 583.50 548.00 L 581.50 550.00 L 583.50 566.00 L 582.50 574.00 L 581.00 571.50 L 579.50 573.00 L 581.50 576.00 L 582.00 590.50 Z     M 618.50 326.00 L 619.50 315.00 L 622.50 312.00 L 624.50 305.00 L 624.00 300.50 L 620.50 302.00 L 617.00 308.50 L 610.50 308.00 L 617.50 314.00 L 615.50 323.00 L 618.50 326.00 Z     M 572.50 355.00 L 575.50 344.00 L 574.00 342.50 L 571.00 346.50 L 567.00 343.50 L 565.50 348.00 L 570.00 347.50 L 569.50 355.00 L 572.50 355.00 Z     M 597.50 317.00 L 600.50 309.00 L 599.00 303.50 L 593.50 308.00 L 595.50 317.00 L 597.50 317.00 Z     M 564.50 513.00 L 565.00 490.50 L 561.50 506.00 L 561.50 510.00 L 564.50 513.00 Z     M 591.50 337.00 L 593.50 329.00 L 597.50 325.00 L 597.00 320.50 L 595.00 320.50 L 592.50 325.00 L 592.50 329.00 L 589.50 334.00 L 589.50 337.00 L 591.50 337.00 Z     M 547.50 504.00 L 550.50 502.00 L 550.50 499.00 L 545.00 496.50 L 542.50 501.00 L 547.50 504.00 Z     M 581.50 397.00 L 583.50 395.00 L 583.00 389.50 L 577.50 393.00 L 577.50 396.00 L 581.50 397.00 Z     M 560.50 399.00 L 563.50 394.00 L 563.00 388.50 L 557.50 396.00 L 558.50 399.00 L 560.50 399.00 Z     M 583.50 318.00 L 585.50 315.00 L 582.00 311.50 L 579.50 317.00 L 583.50 318.00 Z     M 566.50 370.00 L 568.50 365.00 L 566.00 362.50 L 563.50 364.00 L 563.50 369.00 L 566.50 370.00 Z     M 585.50 374.00 L 587.00 366.50 L 585.00 366.50 L 581.50 372.00 L 583.00 374.50 L 585.50 374.00 Z     M 568.50 470.00 L 569.00 460.50 L 565.50 467.00 L 565.50 470.00 L 568.50 470.00 Z     M 567.50 379.00 L 569.50 376.00 L 566.00 372.50 L 564.50 378.00 L 567.50 379.00 Z     M 577.50 420.00 L 578.50 416.00 L 576.00 414.50 L 573.50 419.00 L 577.50 420.00 Z     M 586.50 304.00 L 587.50 301.00 L 583.00 296.50 L 582.50 300.00 L 586.50 304.00 Z     M 555.50 409.00 L 556.50 405.00 L 554.00 402.50 L 551.50 406.00 L 555.50 409.00 Z     M 617.50 332.00 L 617.50 327.00 L 614.00 326.50 L 615.50 332.00 L 617.50 332.00 Z     M 599.50 302.00 L 601.50 300.00 L 601.00 297.50 L 597.50 301.00 L 599.50 302.00 Z     M 540.50 482.00 L 541.00 473.50 L 539.50 477.00 L 540.50 482.00 Z     M 588.50 352.00 L 589.00 348.50 L 586.50 352.00 L 588.50 352.00 Z     M 571.50 446.00 L 572.50 444.00 L 570.00 443.50 L 571.50 446.00 Z" fill="#2f9ff4" fill-rule="evenodd" />
  <path id="logo-part-017" class="logo-part logo-orange" data-layer="orange" d="M 541.00 710.50 L 537.50 708.00 L 542.00 707.50 L 543.50 709.00 L 541.00 710.50 Z" fill="#2f9ff4" fill-rule="evenodd" />
  <path id="logo-part-018" class="logo-part logo-orange" data-layer="orange" d="M 621.00 256.50 L 612.50 254.00 L 615.50 250.00 L 612.50 247.00 L 616.50 243.00 L 613.50 239.00 L 615.50 235.00 L 613.50 230.00 L 618.50 231.00 L 616.50 226.00 L 618.50 222.00 L 615.50 220.00 L 615.50 212.00 L 610.00 210.50 L 604.00 214.50 L 587.50 200.00 L 589.00 195.50 L 607.00 196.50 L 610.50 192.00 L 609.50 187.00 L 614.00 185.50 L 615.50 182.00 L 612.00 180.50 L 606.00 184.50 L 600.00 192.50 L 587.00 192.50 L 580.00 210.50 L 579.50 208.00 L 587.00 189.50 L 601.00 186.50 L 611.00 179.50 L 627.00 175.50 L 641.50 187.00 L 647.50 198.00 L 642.00 197.50 L 642.50 199.00 L 637.50 203.00 L 639.50 216.00 L 637.50 224.00 L 639.50 227.00 L 639.50 233.00 L 637.50 235.00 L 638.50 238.00 L 635.50 244.00 L 635.50 251.00 L 632.00 254.50 L 626.00 252.50 L 621.00 256.50 Z     M 642.50 194.00 L 637.50 185.00 L 632.00 182.50 L 629.00 178.50 L 621.50 180.00 L 625.00 180.50 L 630.00 186.50 L 634.00 185.50 L 638.50 191.00 L 638.50 194.00 L 642.50 194.00 Z     M 621.50 204.00 L 620.00 201.50 L 617.50 202.00 L 618.00 204.50 L 621.50 204.00 Z" fill="#2f9ff4" fill-rule="evenodd" />
  <path id="logo-part-019" class="logo-part logo-orange" data-layer="orange" d="M 611.00 694.50 L 601.00 694.50 L 600.50 693.00 L 607.00 692.50 L 611.00 694.50 Z" fill="#2f9ff4" fill-rule="evenodd" />
  <path id="logo-part-020" class="logo-part logo-orange" data-layer="orange" d="M 609.00 252.50 L 608.00 248.50 L 611.50 251.00 L 609.00 252.50 Z" fill="#2f9ff4" fill-rule="evenodd" />
  <path id="logo-part-021" class="logo-part logo-orange" data-layer="orange" d="M 638.00 256.50 L 636.50 255.00 L 638.50 247.00 L 643.00 237.50 L 643.50 241.00 L 638.00 256.50 Z" fill="#2f9ff4" fill-rule="evenodd" />
  <path id="logo-part-022" class="logo-part logo-orange" data-layer="orange" d="M 647.00 677.50 L 645.50 677.00 L 647.00 675.50 L 653.50 673.00 L 647.00 677.50 Z" fill="#2f9ff4" fill-rule="evenodd" />
  <path id="logo-part-023" class="logo-part logo-orange" data-layer="orange" d="M 675.00 159.50 L 663.50 157.00 L 672.00 156.50 L 675.00 159.50 Z" fill="#2f9ff4" fill-rule="evenodd" />
  <path id="logo-part-024" class="logo-part logo-orange" data-layer="orange" d="M 676.00 154.50 L 665.50 153.00 L 669.00 150.50 L 676.00 154.50 Z" fill="#2f9ff4" fill-rule="evenodd" />
  <path id="logo-part-025" class="logo-part logo-orange" data-layer="orange" d="M 684.00 153.50 L 678.50 149.00 L 684.00 149.50 L 685.50 151.00 L 684.00 153.50 Z" fill="#2f9ff4" fill-rule="evenodd" />
  <path id="logo-part-026" class="logo-part logo-orange" data-layer="orange" d="M 696.00 635.50 L 691.50 625.00 L 694.50 620.00 L 693.50 606.00 L 699.50 602.00 L 698.50 598.00 L 699.50 595.00 L 702.00 594.50 L 709.50 601.00 L 709.50 615.00 L 703.50 617.00 L 705.50 620.00 L 705.50 628.00 L 702.00 628.50 L 696.00 635.50 Z     M 707.50 614.00 L 707.50 606.00 L 702.00 604.50 L 701.50 610.00 L 703.50 611.00 L 703.50 614.00 L 707.50 614.00 Z" fill="#2f9ff4" fill-rule="evenodd" />
  <path id="logo-part-027" class="logo-part logo-orange" data-layer="orange" d="M 698.00 639.50 L 695.50 639.00 L 696.00 636.50 L 699.50 637.00 L 698.00 639.50 Z" fill="#2f9ff4" fill-rule="evenodd" />
  <path id="logo-part-028" class="logo-part logo-orange" data-layer="orange" d="M 725.00 184.50 L 704.50 173.00 L 707.00 172.50 L 715.00 176.50 L 725.00 184.50 Z" fill="#2f9ff4" fill-rule="evenodd" />
  <path id="logo-part-029" class="logo-part logo-orange" data-layer="orange" d="M 716.00 598.50 L 713.00 598.50 L 711.50 595.00 L 716.00 586.50 L 725.50 595.00 L 716.00 598.50 Z" fill="#2f9ff4" fill-rule="evenodd" />
  <path id="logo-part-030" class="logo-part logo-orange" data-layer="orange" d="M 789.00 265.50 L 777.50 242.00 L 761.50 218.00 L 737.00 192.50 L 751.00 203.50 L 765.50 221.00 L 777.50 238.00 L 789.50 263.00 L 789.00 265.50 Z" fill="#2f9ff4" fill-rule="evenodd" />
  <path id="logo-part-031" class="logo-part logo-orange" data-layer="orange" d="M 757.00 197.50 L 748.50 194.00 L 746.50 190.00 L 748.00 186.50 L 751.00 186.50 L 754.00 192.50 L 755.00 190.50 L 759.50 193.00 L 760.50 196.00 L 757.00 197.50 Z" fill="#2f9ff4" fill-rule="evenodd" />
  <path id="logo-part-032" class="logo-part logo-orange" data-layer="orange" d="M 797.00 260.50 L 791.50 257.00 L 790.50 252.00 L 786.50 247.00 L 786.50 242.00 L 789.00 238.50 L 793.00 238.50 L 797.50 243.00 L 795.00 248.50 L 798.00 250.50 L 801.50 249.00 L 797.50 253.00 L 800.50 258.00 L 797.00 260.50 Z" fill="#2f9ff4" fill-rule="evenodd" />
  <path id="logo-part-033" class="logo-part logo-orange" data-layer="orange" d="M 1012.00 340.50 L 1010.50 339.00 L 1012.50 333.00 L 1011.50 330.00 L 1014.50 324.00 L 1015.50 312.00 L 1018.00 309.50 L 1012.00 340.50 Z" fill="#2f9ff4" fill-rule="evenodd" />
  <path id="logo-part-034" class="logo-part logo-orange-detail" data-layer="orange-detail" d="M 511.00 677.50 L 502.00 677.50 L 495.00 675.50 L 485.00 669.50 L 477.50 662.00 L 473.50 653.00 L 473.50 644.00 L 476.00 640.50 L 483.00 640.50 L 488.50 649.00 L 492.00 650.50 L 494.00 653.50 L 502.00 654.50 L 507.00 657.50 L 525.00 657.50 L 531.00 654.50 L 551.50 655.00 L 506.00 659.50 L 504.00 657.50 L 493.00 655.50 L 486.50 650.00 L 481.00 642.50 L 478.00 642.50 L 475.50 646.00 L 475.50 652.00 L 479.50 661.00 L 490.00 670.50 L 499.00 674.50 L 510.00 675.50 L 511.00 677.50 Z" fill="#168bd0" fill-rule="evenodd" />
  <path id="logo-part-035" class="logo-part logo-orange-detail" data-layer="orange-detail" d="M 484.00 229.50 L 481.00 229.50 L 478.50 227.00 L 478.50 224.00 L 483.50 213.00 L 493.50 199.00 L 494.50 195.00 L 508.00 183.50 L 496.50 197.00 L 494.50 202.00 L 484.50 215.00 L 481.50 222.00 L 481.50 226.00 L 483.00 226.50 L 486.50 223.00 L 485.00 221.50 L 487.00 221.50 L 488.50 225.00 L 484.00 229.50 Z" fill="#168bd0" fill-rule="evenodd" />
  <path id="logo-part-036" class="logo-part logo-orange-detail" data-layer="orange-detail" d="M 496.00 188.50 L 493.50 188.00 L 500.50 178.00 L 500.50 176.00 L 524.00 154.50 L 556.00 134.50 L 561.00 133.50 L 562.00 131.50 L 576.00 124.50 L 584.00 122.50 L 588.00 119.50 L 591.00 118.50 L 592.50 120.00 L 588.00 123.50 L 577.00 126.50 L 567.00 131.50 L 542.00 145.50 L 532.00 153.50 L 528.00 154.50 L 519.00 161.50 L 507.00 174.50 L 506.00 173.50 L 501.50 178.00 L 502.50 183.00 L 496.00 188.50 Z" fill="#168bd0" fill-rule="evenodd" />
  <path id="logo-part-037" class="logo-part logo-orange-detail" data-layer="orange-detail" d="M 503.00 219.50 L 500.50 219.00 L 501.50 215.00 L 504.00 215.50 L 512.50 204.00 L 522.00 194.50 L 530.00 189.50 L 538.00 181.50 L 545.00 177.50 L 546.50 178.00 L 524.00 195.50 L 503.00 219.50 Z" fill="#168bd0" fill-rule="evenodd" />
  <path id="logo-part-038" class="logo-part logo-orange-detail" data-layer="orange-detail" d="M 511.00 700.50 L 508.50 698.00 L 510.00 696.50 L 514.00 696.50 L 511.00 700.50 Z" fill="#168bd0" fill-rule="evenodd" />
  <path id="logo-part-039" class="logo-part logo-orange-detail" data-layer="orange-detail" d="M 530.00 706.50 L 527.00 703.50 L 524.00 704.50 L 521.00 697.50 L 515.50 696.00 L 517.00 694.50 L 526.00 694.50 L 526.50 692.00 L 531.00 688.50 L 539.00 687.50 L 544.50 683.00 L 542.00 680.50 L 538.00 679.50 L 536.00 681.50 L 531.00 682.50 L 515.00 683.50 L 510.50 681.00 L 511.00 679.50 L 516.50 680.00 L 513.50 677.00 L 513.00 673.50 L 522.00 680.50 L 524.00 678.50 L 530.00 679.50 L 532.00 677.50 L 535.00 678.50 L 541.00 676.50 L 552.00 686.50 L 563.00 685.50 L 572.00 680.50 L 577.00 680.50 L 581.00 677.50 L 582.50 678.00 L 580.00 681.50 L 573.00 682.50 L 565.00 687.50 L 557.00 689.50 L 552.00 690.50 L 544.00 687.50 L 539.50 690.00 L 537.00 696.50 L 534.50 696.00 L 534.00 691.50 L 533.00 694.50 L 527.00 694.50 L 525.50 696.00 L 527.50 699.00 L 526.50 701.00 L 530.50 703.00 L 530.00 706.50 Z" fill="#168bd0" fill-rule="evenodd" />
  <path id="logo-part-040" class="logo-part logo-orange-detail" data-layer="orange-detail" d="M 554.00 647.50 L 551.00 647.50 L 548.50 643.00 L 562.00 635.50 L 563.50 633.00 L 560.50 631.00 L 560.50 628.00 L 555.50 619.00 L 555.50 615.00 L 552.50 609.00 L 550.00 606.50 L 545.00 607.50 L 541.50 603.00 L 536.50 591.00 L 535.50 584.00 L 534.00 583.50 L 532.50 587.00 L 527.00 590.50 L 524.00 589.50 L 520.50 585.00 L 516.50 576.00 L 513.50 563.00 L 511.50 540.00 L 512.50 504.00 L 517.50 459.00 L 517.50 447.00 L 522.50 427.00 L 525.50 396.00 L 527.50 394.00 L 531.50 368.00 L 536.00 353.50 L 537.50 354.00 L 537.50 356.00 L 533.50 374.00 L 535.50 381.00 L 535.50 397.00 L 538.50 402.00 L 538.50 410.00 L 540.50 411.00 L 540.50 417.00 L 538.50 422.00 L 537.50 439.00 L 534.50 454.00 L 535.50 463.00 L 533.50 471.00 L 535.50 486.00 L 533.50 490.00 L 533.50 504.00 L 535.00 505.50 L 536.00 503.50 L 537.50 504.00 L 539.50 521.00 L 542.50 526.00 L 542.50 529.00 L 541.00 531.50 L 539.50 531.00 L 536.50 510.00 L 531.50 502.00 L 531.50 457.00 L 533.50 447.00 L 532.50 443.00 L 535.50 430.00 L 534.50 427.00 L 537.50 416.00 L 536.50 404.00 L 533.50 396.00 L 533.00 383.50 L 528.50 398.00 L 527.50 418.00 L 525.50 423.00 L 524.50 437.00 L 521.50 446.00 L 521.50 456.00 L 518.50 470.00 L 518.50 485.00 L 514.50 529.00 L 516.50 545.00 L 515.50 553.00 L 517.50 567.00 L 519.50 570.00 L 519.50 576.00 L 521.50 579.00 L 527.00 580.50 L 528.50 583.00 L 526.50 585.00 L 528.00 585.50 L 535.00 582.50 L 541.00 574.50 L 541.50 577.00 L 538.50 582.00 L 538.50 585.00 L 541.50 589.00 L 541.50 596.00 L 547.00 604.50 L 552.00 604.50 L 551.50 586.00 L 548.50 568.00 L 547.00 565.50 L 545.50 571.00 L 542.50 572.00 L 544.50 564.00 L 541.50 551.00 L 538.00 549.50 L 537.50 547.00 L 540.50 539.00 L 539.50 535.00 L 542.00 533.50 L 543.50 535.00 L 542.50 541.00 L 544.50 548.00 L 544.50 558.00 L 547.00 564.50 L 549.50 558.00 L 549.50 549.00 L 552.50 539.00 L 551.50 535.00 L 553.00 531.50 L 556.50 531.00 L 557.50 539.00 L 552.50 558.00 L 552.50 575.00 L 558.50 616.00 L 563.50 627.00 L 566.50 629.00 L 566.50 635.00 L 562.00 636.50 L 561.00 638.50 L 552.00 642.50 L 551.50 644.00 L 581.50 638.00 L 572.00 642.50 L 568.00 642.50 L 554.00 647.50 Z     M 551.50 575.00 L 550.00 559.50 L 548.50 566.00 L 551.50 575.00 Z     M 553.50 546.00 L 555.50 540.00 L 554.00 535.50 L 552.50 543.00 L 553.50 546.00 Z     M 519.50 455.00 L 519.00 448.50 L 519.50 455.00 Z     M 552.50 551.00 L 552.00 546.50 L 552.50 551.00 Z" fill="#168bd0" fill-rule="evenodd" />
  <path id="logo-part-041" class="logo-part logo-orange-detail" data-layer="orange-detail" d="M 548.00 709.50 L 545.00 709.50 L 542.00 706.50 L 539.00 707.50 L 537.50 705.00 L 550.00 705.50 L 556.00 699.50 L 561.00 698.50 L 565.00 694.50 L 579.00 697.50 L 589.00 688.50 L 600.00 687.50 L 602.00 689.50 L 613.00 690.50 L 617.00 687.50 L 631.00 683.50 L 642.00 675.50 L 664.00 663.50 L 685.00 649.50 L 687.00 649.50 L 694.00 643.50 L 701.00 641.50 L 726.00 624.50 L 741.00 611.50 L 752.00 604.50 L 788.50 570.00 L 827.50 523.00 L 840.50 502.00 L 848.50 492.00 L 853.50 483.00 L 852.50 482.00 L 856.50 479.00 L 856.50 483.00 L 838.50 511.00 L 806.50 554.00 L 755.00 605.50 L 721.00 631.50 L 629.00 687.50 L 619.00 689.50 L 612.00 693.50 L 606.00 691.50 L 602.00 693.50 L 599.00 689.50 L 594.00 692.50 L 590.00 690.50 L 580.00 700.50 L 574.00 698.50 L 571.00 699.50 L 567.00 697.50 L 562.00 706.50 L 559.00 707.50 L 557.00 705.50 L 554.00 708.50 L 550.00 706.50 L 548.00 709.50 Z" fill="#168bd0" fill-rule="evenodd" />
  <path id="logo-part-042" class="logo-part logo-orange-detail" data-layer="orange-detail" d="M 540.00 485.50 L 538.50 484.00 L 538.50 480.00 L 541.50 470.00 L 543.50 445.00 L 547.00 435.50 L 547.50 439.00 L 550.50 441.00 L 550.50 443.00 L 545.50 450.00 L 544.50 457.00 L 546.50 463.00 L 543.50 468.00 L 540.00 485.50 Z" fill="#168bd0" fill-rule="evenodd" />
  <path id="logo-part-043" class="logo-part logo-orange-detail" data-layer="orange-detail" d="M 547.00 504.50 L 543.50 503.00 L 542.50 498.00 L 549.00 496.50 L 550.50 498.00 L 550.50 503.00 L 547.00 504.50 Z" fill="#168bd0" fill-rule="evenodd" />
  <path id="logo-part-044" class="logo-part logo-orange-detail" data-layer="orange-detail" d="M 546.00 321.50 L 544.50 321.00 L 544.50 313.00 L 545.50 309.00 L 548.00 307.50 L 546.00 321.50 Z" fill="#168bd0" fill-rule="evenodd" />
  <path id="logo-part-045" class="logo-part logo-orange-detail" data-layer="orange-detail" d="M 810.00 347.50 L 807.50 338.00 L 806.50 322.00 L 804.50 319.00 L 804.50 312.00 L 796.50 282.00 L 792.50 270.00 L 778.50 241.00 L 758.50 212.00 L 744.00 197.50 L 726.00 183.50 L 706.00 171.50 L 697.00 168.50 L 695.00 165.50 L 676.00 159.50 L 674.00 157.50 L 650.00 153.50 L 646.00 155.50 L 644.00 153.50 L 630.00 154.50 L 629.00 152.50 L 601.00 156.50 L 574.00 166.50 L 551.00 178.50 L 549.00 178.50 L 547.50 176.00 L 551.00 175.50 L 557.00 171.50 L 560.00 171.50 L 568.00 166.50 L 569.00 167.50 L 572.00 164.50 L 596.00 155.50 L 621.00 150.50 L 638.00 150.50 L 640.00 152.50 L 659.00 152.50 L 674.00 155.50 L 679.00 158.50 L 688.00 160.50 L 696.00 163.50 L 699.00 166.50 L 716.00 174.50 L 730.00 183.50 L 752.00 201.50 L 764.50 215.00 L 764.50 217.00 L 780.50 240.00 L 792.50 264.00 L 804.50 300.00 L 806.50 317.00 L 809.50 326.00 L 810.00 347.50 Z" fill="#168bd0" fill-rule="evenodd" />
  <path id="logo-part-046" class="logo-part logo-orange-detail" data-layer="orange-detail" d="M 552.00 298.50 L 550.50 298.00 L 551.50 290.00 L 554.00 288.50 L 555.50 295.00 L 552.00 298.50 Z" fill="#168bd0" fill-rule="evenodd" />
  <path id="logo-part-047" class="logo-part logo-orange-detail" data-layer="orange-detail" d="M 555.00 410.50 L 551.50 405.00 L 553.50 397.00 L 556.00 393.50 L 554.50 402.00 L 556.50 404.00 L 556.50 409.00 L 555.00 410.50 Z" fill="#168bd0" fill-rule="evenodd" />
  <path id="logo-part-048" class="logo-part logo-orange-detail" data-layer="orange-detail" d="M 614.00 338.50 L 612.00 338.50 L 611.50 337.00 L 615.50 331.00 L 612.50 327.00 L 616.50 327.00 L 615.50 320.00 L 618.50 319.00 L 616.50 318.00 L 616.50 312.00 L 608.50 307.00 L 611.00 306.50 L 615.00 309.50 L 618.00 309.50 L 622.50 301.00 L 622.50 296.00 L 624.50 295.00 L 624.50 290.00 L 627.50 286.00 L 626.50 278.00 L 633.50 263.00 L 632.50 257.00 L 640.50 241.00 L 642.50 233.00 L 641.50 230.00 L 643.50 226.00 L 641.50 223.00 L 644.50 218.00 L 642.50 216.00 L 644.50 215.00 L 646.50 210.00 L 646.50 201.00 L 641.50 196.00 L 639.50 190.00 L 635.00 184.50 L 629.00 182.50 L 627.00 179.50 L 621.00 180.50 L 616.00 183.50 L 610.00 184.50 L 600.00 193.50 L 592.00 195.50 L 589.00 193.50 L 587.50 195.00 L 583.50 210.00 L 578.50 220.00 L 576.50 229.00 L 573.50 234.00 L 559.50 274.00 L 558.50 281.00 L 555.00 284.50 L 553.00 284.50 L 552.50 282.00 L 556.50 279.00 L 556.50 275.00 L 560.50 267.00 L 570.50 235.00 L 573.50 231.00 L 585.50 193.00 L 588.00 190.50 L 594.00 191.50 L 595.00 189.50 L 600.00 191.50 L 600.50 189.00 L 611.00 180.50 L 617.00 181.50 L 619.00 178.50 L 625.00 178.50 L 628.00 176.50 L 632.00 181.50 L 637.00 183.50 L 642.50 190.00 L 642.50 194.00 L 649.50 201.00 L 649.50 207.00 L 647.50 217.00 L 645.50 220.00 L 646.50 230.00 L 643.50 234.00 L 643.50 238.00 L 638.50 253.00 L 636.50 255.00 L 636.50 262.00 L 631.50 273.00 L 629.50 288.00 L 624.50 299.00 L 622.50 313.00 L 620.50 315.00 L 618.50 332.00 L 614.00 338.50 Z" fill="#168bd0" fill-rule="evenodd" />
  <path id="logo-part-049" class="logo-part logo-orange-detail" data-layer="orange-detail" d="M 560.00 400.50 L 558.50 400.00 L 557.50 396.00 L 563.00 387.50 L 564.50 390.00 L 560.00 400.50 Z" fill="#168bd0" fill-rule="evenodd" />
  <path id="logo-part-050" class="logo-part logo-orange-detail" data-layer="orange-detail" d="M 569.00 563.50 L 566.50 561.00 L 565.50 553.00 L 561.50 550.00 L 562.50 546.00 L 559.50 543.00 L 559.50 540.00 L 562.50 537.00 L 561.50 536.00 L 563.00 533.50 L 565.50 538.00 L 565.50 544.00 L 568.50 546.00 L 566.50 554.00 L 569.50 560.00 L 569.00 563.50 Z     M 566.50 550.00 L 567.50 549.00 L 566.00 547.50 L 563.50 549.00 L 566.50 550.00 Z" fill="#168bd0" fill-rule="evenodd" />
  <path id="logo-part-051" class="logo-part logo-orange-detail" data-layer="orange-detail" d="M 563.00 519.50 L 561.50 518.00 L 561.50 506.00 L 563.50 500.00 L 564.50 484.00 L 565.50 480.00 L 567.00 479.50 L 565.50 495.00 L 566.50 505.00 L 564.50 509.00 L 564.50 518.00 L 563.00 519.50 Z" fill="#168bd0" fill-rule="evenodd" />
  <path id="logo-part-052" class="logo-part logo-orange-detail" data-layer="orange-detail" d="M 566.00 370.50 L 563.50 369.00 L 562.50 366.00 L 562.50 364.00 L 565.00 362.50 L 568.50 364.00 L 568.50 368.00 L 566.00 370.50 Z" fill="#168bd0" fill-rule="evenodd" />
  <path id="logo-part-053" class="logo-part logo-orange-detail" data-layer="orange-detail" d="M 567.00 666.50 L 562.50 666.00 L 569.00 662.50 L 574.50 662.00 L 571.00 665.50 L 567.00 666.50 Z" fill="#168bd0" fill-rule="evenodd" />
  <path id="logo-part-054" class="logo-part logo-orange-detail" data-layer="orange-detail" d="M 567.00 379.50 L 564.50 379.00 L 565.00 372.50 L 569.50 375.00 L 567.00 379.50 Z" fill="#168bd0" fill-rule="evenodd" />
  <path id="logo-part-055" class="logo-part logo-orange-detail" data-layer="orange-detail" d="M 568.00 471.50 L 566.00 471.50 L 564.50 469.00 L 568.50 464.00 L 567.50 461.00 L 569.00 458.50 L 570.50 463.00 L 569.50 470.00 L 568.00 471.50 Z" fill="#168bd0" fill-rule="evenodd" />
  <path id="logo-part-056" class="logo-part logo-orange-detail" data-layer="orange-detail" d="M 568.00 349.50 L 565.50 348.00 L 565.50 345.00 L 567.50 343.00 L 567.50 337.00 L 572.50 317.00 L 576.00 316.50 L 577.50 319.00 L 573.50 320.00 L 571.50 330.00 L 572.50 332.00 L 570.50 335.00 L 569.50 347.00 L 568.00 349.50 Z" fill="#168bd0" fill-rule="evenodd" />
  <path id="logo-part-057" class="logo-part logo-orange-detail" data-layer="orange-detail" d="M 571.00 653.50 L 567.50 653.00 L 573.00 650.50 L 587.50 648.00 L 571.00 653.50 Z" fill="#168bd0" fill-rule="evenodd" />
  <path id="logo-part-058" class="logo-part logo-orange-detail" data-layer="orange-detail" d="M 572.00 356.50 L 570.00 356.50 L 568.50 353.00 L 574.00 342.50 L 575.50 347.00 L 572.00 356.50 Z" fill="#168bd0" fill-rule="evenodd" />
  <path id="logo-part-059" class="logo-part logo-orange-detail" data-layer="orange-detail" d="M 571.00 447.50 L 568.50 445.00 L 569.00 443.50 L 572.50 444.00 L 571.00 447.50 Z" fill="#168bd0" fill-rule="evenodd" />
  <path id="logo-part-060" class="logo-part logo-orange-detail" data-layer="orange-detail" d="M 573.00 571.50 L 571.50 571.00 L 570.00 565.50 L 572.50 568.00 L 573.00 571.50 Z" fill="#168bd0" fill-rule="evenodd" />
  <path id="logo-part-061" class="logo-part logo-orange-detail" data-layer="orange-detail" d="M 572.00 279.50 L 570.50 279.00 L 570.50 276.00 L 574.50 267.00 L 573.50 263.00 L 576.50 261.00 L 584.00 243.50 L 584.50 247.00 L 572.00 279.50 Z" fill="#168bd0" fill-rule="evenodd" />
  <path id="logo-part-062" class="logo-part logo-orange-detail" data-layer="orange-detail" d="M 574.00 626.50 L 572.50 626.00 L 577.50 621.00 L 578.50 614.00 L 578.50 598.00 L 573.50 577.00 L 573.50 574.00 L 575.00 573.50 L 576.50 578.00 L 580.50 580.00 L 577.50 582.00 L 577.50 585.00 L 581.50 589.00 L 582.50 596.00 L 581.50 605.00 L 579.50 607.00 L 581.50 608.00 L 580.50 619.00 L 582.50 622.00 L 574.00 626.50 Z" fill="#168bd0" fill-rule="evenodd" />
  <path id="logo-part-063" class="logo-part logo-orange-detail" data-layer="orange-detail" d="M 577.00 421.50 L 573.50 419.00 L 573.50 417.00 L 578.00 414.50 L 578.50 420.00 L 577.00 421.50 Z" fill="#168bd0" fill-rule="evenodd" />
  <path id="logo-part-064" class="logo-part logo-orange-detail" data-layer="orange-detail" d="M 580.00 398.50 L 577.50 394.00 L 580.00 389.50 L 583.00 389.50 L 583.50 395.00 L 580.00 398.50 Z" fill="#168bd0" fill-rule="evenodd" />
  <path id="logo-part-065" class="logo-part logo-orange-detail" data-layer="orange-detail" d="M 580.00 575.50 L 577.50 575.00 L 581.00 568.50 L 581.50 574.00 L 580.00 575.50 Z" fill="#168bd0" fill-rule="evenodd" />
  <path id="logo-part-066" class="logo-part logo-orange-detail" data-layer="orange-detail" d="M 584.00 318.50 L 579.50 317.00 L 582.00 310.50 L 585.50 314.00 L 584.00 318.50 Z" fill="#168bd0" fill-rule="evenodd" />
  <path id="logo-part-067" class="logo-part logo-orange-detail" data-layer="orange-detail" d="M 581.00 535.50 L 579.50 535.00 L 581.00 522.50 L 583.50 526.00 L 583.50 532.00 L 581.00 535.50 Z" fill="#168bd0" fill-rule="evenodd" />
  <path id="logo-part-068" class="logo-part logo-orange-detail" data-layer="orange-detail" d="M 582.00 559.50 L 580.50 559.00 L 579.50 547.00 L 581.00 544.50 L 583.50 549.00 L 582.00 559.50 Z" fill="#168bd0" fill-rule="evenodd" />
  <path id="logo-part-069" class="logo-part logo-orange-detail" data-layer="orange-detail" d="M 586.00 304.50 L 581.50 299.00 L 583.00 294.50 L 587.50 301.00 L 586.00 304.50 Z" fill="#168bd0" fill-rule="evenodd" />
  <path id="logo-part-070" class="logo-part logo-orange-detail" data-layer="orange-detail" d="M 585.00 376.50 L 581.50 372.00 L 586.00 365.50 L 587.50 369.00 L 585.00 376.50 Z" fill="#168bd0" fill-rule="evenodd" />
  <path id="logo-part-071" class="logo-part logo-orange-detail" data-layer="orange-detail" d="M 584.00 275.50 L 582.50 275.00 L 582.50 272.00 L 586.50 247.00 L 588.00 245.50 L 588.50 255.00 L 586.50 259.00 L 586.50 265.00 L 589.50 269.00 L 585.50 269.00 L 585.50 272.00 L 588.00 271.50 L 588.50 273.00 L 584.00 275.50 Z" fill="#168bd0" fill-rule="evenodd" />
  <path id="logo-part-072" class="logo-part logo-orange-detail" data-layer="orange-detail" d="M 587.00 681.50 L 585.00 681.50 L 583.50 679.00 L 587.00 676.50 L 605.00 670.50 L 614.00 665.50 L 619.50 666.00 L 615.00 672.50 L 606.00 674.50 L 602.00 672.50 L 599.00 675.50 L 587.00 681.50 Z     M 611.50 672.00 L 614.00 671.50 L 617.50 667.00 L 610.00 668.50 L 606.50 672.00 L 611.50 672.00 Z" fill="#168bd0" fill-rule="evenodd" />
  <path id="logo-part-073" class="logo-part logo-orange-detail" data-layer="orange-detail" d="M 588.00 353.50 L 586.50 353.00 L 586.50 350.00 L 589.00 347.50 L 590.50 351.00 L 588.00 353.50 Z" fill="#168bd0" fill-rule="evenodd" />
  <path id="logo-part-074" class="logo-part logo-orange-detail" data-layer="orange-detail" d="M 590.00 341.50 L 589.50 334.00 L 595.50 320.00 L 595.50 314.00 L 592.50 309.00 L 599.00 303.50 L 600.50 305.00 L 600.50 309.00 L 596.50 320.00 L 597.50 325.00 L 593.50 329.00 L 593.50 335.00 L 591.50 336.00 L 591.50 340.00 L 590.00 341.50 Z     M 597.50 312.00 L 598.50 309.00 L 596.00 308.50 L 594.50 310.00 L 596.00 312.50 L 597.50 312.00 Z" fill="#168bd0" fill-rule="evenodd" />
  <path id="logo-part-075" class="logo-part logo-orange-detail" data-layer="orange-detail" d="M 601.00 279.50 L 599.00 276.50 L 593.00 275.50 L 590.50 273.00 L 594.00 272.50 L 602.00 275.50 L 611.00 270.50 L 617.50 260.00 L 620.00 259.50 L 620.50 261.00 L 611.50 273.00 L 608.00 275.50 L 605.00 275.50 L 601.00 279.50 Z" fill="#168bd0" fill-rule="evenodd" />
  <path id="logo-part-076" class="logo-part logo-orange-detail" data-layer="orange-detail" d="M 597.00 431.50 L 595.50 430.00 L 596.00 425.50 L 598.50 427.00 L 597.00 431.50 Z" fill="#168bd0" fill-rule="evenodd" />
  <path id="logo-part-077" class="logo-part logo-orange-detail" data-layer="orange-detail" d="M 600.00 302.50 L 597.50 301.00 L 601.00 297.50 L 600.00 302.50 Z" fill="#168bd0" fill-rule="evenodd" />
  <path id="logo-part-078" class="logo-part logo-orange-detail" data-layer="orange-detail" d="M 603.00 395.50 L 601.50 394.00 L 603.50 392.00 L 602.50 389.00 L 604.50 387.00 L 603.50 375.00 L 605.00 374.50 L 607.50 380.00 L 607.50 389.00 L 605.50 394.00 L 603.00 395.50 Z" fill="#168bd0" fill-rule="evenodd" />
  <path id="logo-part-079" class="logo-part logo-orange-detail" data-layer="orange-detail" d="M 607.00 371.50 L 605.50 370.00 L 609.50 364.00 L 611.50 354.00 L 610.50 345.00 L 613.00 342.50 L 613.50 358.00 L 611.50 366.00 L 607.00 371.50 Z" fill="#168bd0" fill-rule="evenodd" />
  <path id="logo-part-080" class="logo-part logo-orange-detail" data-layer="orange-detail" d="M 625.00 260.50 L 623.00 260.50 L 622.50 259.00 L 628.00 254.50 L 629.50 258.00 L 625.00 260.50 Z" fill="#168bd0" fill-rule="evenodd" />
  <path id="logo-part-081" class="logo-part logo-orange-detail" data-layer="orange-detail" d="M 629.00 638.50 L 627.50 638.00 L 629.00 635.50 L 656.00 616.50 L 665.00 607.50 L 673.00 605.50 L 684.00 595.50 L 686.50 596.00 L 686.50 598.00 L 675.00 607.50 L 671.00 609.50 L 669.00 608.50 L 658.00 617.50 L 655.00 622.50 L 639.00 630.50 L 632.00 637.50 L 629.00 638.50 Z" fill="#168bd0" fill-rule="evenodd" />
  <path id="logo-part-082" class="logo-part logo-orange-detail" data-layer="orange-detail" d="M 638.00 661.50 L 635.50 660.00 L 635.50 657.00 L 637.50 656.00 L 638.00 659.50 L 642.00 657.50 L 646.50 653.00 L 646.00 651.50 L 642.50 651.00 L 646.00 649.50 L 647.50 654.00 L 638.00 661.50 Z" fill="#168bd0" fill-rule="evenodd" />
  <path id="logo-part-083" class="logo-part logo-orange-detail" data-layer="orange-detail" d="M 655.00 110.50 L 640.50 109.00 L 644.00 107.50 L 655.00 107.50 L 656.50 109.00 L 655.00 110.50 Z" fill="#168bd0" fill-rule="evenodd" />
  <path id="logo-part-084" class="logo-part logo-orange-detail" data-layer="orange-detail" d="M 652.00 651.50 L 649.50 650.00 L 652.00 646.50 L 655.00 648.50 L 660.50 644.00 L 656.50 644.00 L 659.00 641.50 L 662.50 643.00 L 659.00 647.50 L 652.00 651.50 Z" fill="#168bd0" fill-rule="evenodd" />
  <path id="logo-part-085" class="logo-part logo-orange-detail" data-layer="orange-detail" d="M 675.00 645.50 L 673.50 645.00 L 672.50 640.00 L 673.50 635.00 L 666.00 636.50 L 664.50 634.00 L 667.00 632.50 L 667.00 634.50 L 678.00 634.50 L 676.50 633.00 L 679.50 631.00 L 679.00 629.50 L 671.50 630.00 L 678.00 627.50 L 681.00 628.50 L 681.50 631.00 L 675.00 645.50 Z     M 675.50 643.00 L 676.50 640.00 L 675.00 637.50 L 673.50 639.00 L 675.50 643.00 Z" fill="#168bd0" fill-rule="evenodd" />
  <path id="logo-part-086" class="logo-part logo-orange-detail" data-layer="orange-detail" d="M 668.00 590.50 L 665.50 590.00 L 684.00 576.50 L 689.50 575.00 L 668.00 590.50 Z" fill="#168bd0" fill-rule="evenodd" />
  <path id="logo-part-087" class="logo-part logo-orange-detail" data-layer="orange-detail" d="M 691.00 600.50 L 689.00 600.50 L 688.50 599.00 L 690.50 597.00 L 691.50 588.00 L 702.00 576.50 L 707.00 573.50 L 710.00 573.50 L 712.50 571.00 L 719.50 560.00 L 731.50 549.00 L 735.50 542.00 L 741.00 537.50 L 741.50 540.00 L 734.50 547.00 L 735.50 550.00 L 729.00 553.50 L 722.50 560.00 L 718.50 567.00 L 710.00 575.50 L 703.00 579.50 L 693.50 590.00 L 691.00 600.50 Z" fill="#168bd0" fill-rule="evenodd" />
  <path id="logo-part-088" class="logo-part logo-orange-detail" data-layer="orange-detail" d="M 705.00 570.50 L 704.00 567.50 L 713.00 561.50 L 714.50 562.00 L 705.00 570.50 Z" fill="#168bd0" fill-rule="evenodd" />
  <path id="logo-part-089" class="logo-part logo-orange-detail" data-layer="orange-detail" d="M 742.00 535.50 L 740.50 535.00 L 740.50 532.00 L 745.50 529.00 L 750.50 522.00 L 750.50 517.00 L 754.50 507.00 L 762.50 497.00 L 762.50 491.00 L 766.00 487.50 L 772.50 485.00 L 772.50 480.00 L 774.00 478.50 L 779.00 477.50 L 780.50 479.00 L 779.50 482.00 L 785.50 487.00 L 781.00 486.50 L 777.00 480.50 L 775.50 485.00 L 769.50 488.00 L 768.50 494.00 L 764.50 497.00 L 759.50 507.00 L 754.50 512.00 L 753.50 521.00 L 751.50 525.00 L 742.00 535.50 Z" fill="#168bd0" fill-rule="evenodd" />
  <path id="logo-part-090" class="logo-part logo-orange-detail" data-layer="orange-detail" d="M 765.00 554.50 L 763.50 554.00 L 767.50 548.00 L 796.50 513.00 L 815.00 483.50 L 812.50 491.00 L 808.50 495.00 L 806.50 501.00 L 795.50 518.00 L 765.00 554.50 Z" fill="#168bd0" fill-rule="evenodd" />
  <path id="logo-part-091" class="logo-part logo-orange-detail" data-layer="orange-detail" d="M 769.00 555.50 L 767.50 555.00 L 768.50 553.00 L 801.50 516.00 L 832.50 471.00 L 836.00 468.50 L 836.50 470.00 L 832.50 477.00 L 800.50 521.00 L 769.00 555.50 Z" fill="#168bd0" fill-rule="evenodd" />
  <path id="logo-part-092" class="logo-part logo-orange-detail" data-layer="orange-detail" d="M 793.00 490.50 L 791.50 489.00 L 800.50 483.00 L 801.50 479.00 L 806.50 473.00 L 806.50 469.00 L 808.50 467.00 L 820.50 436.00 L 826.00 426.50 L 825.50 431.00 L 806.50 477.00 L 804.50 478.00 L 801.50 485.00 L 793.00 490.50 Z" fill="#168bd0" fill-rule="evenodd" />
  <path id="logo-part-093" class="logo-part logo-orange-detail" data-layer="orange-detail" d="M 844.00 474.50 L 838.50 471.00 L 842.00 471.50 L 844.00 474.50 Z" fill="#168bd0" fill-rule="evenodd" />
  <path id="logo-part-094" class="logo-part logo-orange-detail" data-layer="orange-detail" d="M 1051.00 679.50 L 1047.00 679.50 L 1044.00 677.50 L 1038.00 678.50 L 1022.00 672.50 L 1006.00 661.50 L 993.50 650.00 L 987.50 642.00 L 977.50 620.00 L 970.50 595.00 L 965.50 544.00 L 966.50 494.00 L 968.50 474.00 L 983.50 385.00 L 985.50 364.00 L 987.50 360.00 L 991.50 335.00 L 997.50 312.00 L 997.50 306.00 L 1003.50 282.00 L 1005.50 267.00 L 1007.50 263.00 L 1007.50 257.00 L 1009.50 254.00 L 1016.50 218.00 L 1028.50 172.00 L 1025.00 169.50 L 1002.00 166.50 L 983.00 166.50 L 981.00 164.50 L 956.00 164.50 L 934.00 167.50 L 913.00 176.50 L 908.00 179.50 L 900.50 188.00 L 898.50 196.00 L 900.50 206.00 L 916.00 218.50 L 920.00 220.50 L 929.00 220.50 L 936.50 224.00 L 935.00 226.50 L 926.00 230.50 L 916.00 231.50 L 907.00 229.50 L 894.00 222.50 L 882.50 211.00 L 876.50 202.00 L 871.50 190.00 L 870.50 181.00 L 873.50 160.00 L 885.50 138.00 L 899.00 122.50 L 915.00 112.50 L 938.00 104.50 L 976.00 97.50 L 1007.00 95.50 L 1061.00 99.50 L 1116.00 100.50 L 1182.00 93.50 L 1213.00 84.50 L 1235.00 72.50 L 1246.50 62.00 L 1257.50 43.00 L 1259.50 28.00 L 1262.00 25.50 L 1263.50 27.00 L 1262.50 28.00 L 1266.50 32.00 L 1267.50 40.00 L 1270.50 46.00 L 1266.50 45.00 L 1265.50 34.00 L 1262.00 32.50 L 1257.50 48.00 L 1249.50 61.00 L 1231.00 77.50 L 1206.00 89.50 L 1174.00 97.50 L 1118.00 102.50 L 1098.00 101.50 L 1073.00 102.50 L 1008.00 97.50 L 1001.00 99.50 L 977.00 99.50 L 971.00 101.50 L 958.00 102.50 L 949.00 105.50 L 948.00 104.50 L 918.00 113.50 L 904.00 121.50 L 892.50 132.00 L 880.50 150.00 L 876.50 159.00 L 873.50 170.00 L 874.50 171.00 L 872.50 176.00 L 872.50 183.00 L 874.50 192.00 L 879.50 203.00 L 889.50 216.00 L 898.00 223.50 L 916.00 229.50 L 927.00 228.50 L 932.50 225.00 L 927.00 222.50 L 917.00 221.50 L 905.00 213.50 L 898.50 207.00 L 896.50 200.00 L 898.50 187.00 L 905.00 179.50 L 914.00 173.50 L 933.00 165.50 L 952.00 162.50 L 980.00 162.50 L 1015.00 166.50 L 1017.00 165.50 L 1026.00 167.50 L 1030.50 172.00 L 1012.50 246.00 L 1012.50 251.00 L 1009.50 259.00 L 1009.50 264.00 L 1007.50 268.00 L 1004.50 283.00 L 1005.50 284.00 L 991.50 347.00 L 991.50 353.00 L 986.50 371.00 L 987.50 373.00 L 984.50 395.00 L 982.50 399.00 L 980.50 419.00 L 978.50 424.00 L 977.50 439.00 L 974.50 448.00 L 974.50 459.00 L 972.50 461.00 L 973.50 464.00 L 971.50 470.00 L 968.50 500.00 L 969.50 519.00 L 967.50 526.00 L 967.50 537.00 L 969.50 546.00 L 968.50 553.00 L 972.50 552.00 L 969.50 556.00 L 972.50 593.00 L 975.50 605.00 L 977.50 607.00 L 979.50 619.00 L 988.50 639.00 L 992.50 645.00 L 1009.00 661.50 L 1019.00 668.50 L 1032.00 674.50 L 1046.00 674.50 L 1047.00 677.50 L 1051.00 676.50 L 1053.00 673.50 L 1055.00 673.50 L 1056.00 675.50 L 1061.00 675.50 L 1063.00 673.50 L 1066.00 674.50 L 1067.00 671.50 L 1071.00 673.50 L 1073.00 671.50 L 1078.50 672.00 L 1064.00 677.50 L 1062.00 675.50 L 1061.00 678.50 L 1051.00 679.50 Z" fill="#168bd0" fill-rule="evenodd" />
  <path id="logo-part-095" class="logo-part logo-orange-detail" data-layer="orange-detail" d="M 887.00 170.50 L 884.50 169.00 L 883.50 165.00 L 887.50 156.00 L 893.50 148.00 L 905.00 137.50 L 924.00 127.50 L 955.00 120.50 L 986.00 121.50 L 993.50 124.00 L 988.00 124.50 L 981.00 122.50 L 953.00 122.50 L 922.00 130.50 L 902.00 142.50 L 890.50 155.00 L 885.00 167.50 L 887.00 167.50 L 893.50 159.00 L 908.00 145.50 L 929.00 134.50 L 952.00 128.50 L 991.00 126.50 L 996.50 128.00 L 989.00 130.50 L 988.00 129.50 L 986.00 131.50 L 984.00 129.50 L 955.00 130.50 L 930.00 136.50 L 906.00 149.50 L 887.00 170.50 Z" fill="#168bd0" fill-rule="evenodd" />
  <path id="logo-part-096" class="logo-part logo-orange-detail" data-layer="orange-detail" d="M 974.00 549.50 L 972.50 546.00 L 976.00 544.50 L 976.50 547.00 L 974.00 549.50 Z" fill="#168bd0" fill-rule="evenodd" />
  <path id="logo-part-097" class="logo-part logo-orange-detail" data-layer="orange-detail" d="M 986.00 595.50 L 983.50 593.00 L 981.50 584.00 L 981.50 579.00 L 983.00 577.50 L 986.00 595.50 Z" fill="#168bd0" fill-rule="evenodd" />
  <path id="logo-part-098" class="logo-part logo-orange-detail" data-layer="orange-detail" d="M 989.00 594.50 L 991.00 579.50 L 992.50 582.00 L 992.50 589.00 L 989.00 594.50 Z" fill="#168bd0" fill-rule="evenodd" />
  <path id="logo-part-099" class="logo-part logo-orange-detail" data-layer="orange-detail" d="M 1011.00 356.50 L 1010.50 352.00 L 1014.50 330.00 L 1020.50 308.00 L 1022.50 291.00 L 1029.50 262.00 L 1032.50 236.00 L 1044.50 183.00 L 1043.00 179.50 L 1039.50 181.00 L 1035.50 192.00 L 1031.50 215.00 L 1024.50 242.00 L 1014.50 306.00 L 1014.50 318.00 L 1010.50 330.00 L 1010.50 343.00 L 1008.50 347.00 L 1008.50 355.00 L 1007.00 355.50 L 1006.50 346.00 L 1008.50 342.00 L 1008.50 334.00 L 1012.50 317.00 L 1012.50 304.00 L 1014.50 298.00 L 1014.50 291.00 L 1016.50 287.00 L 1016.50 278.00 L 1020.50 252.00 L 1033.50 192.00 L 1037.50 181.00 L 1042.00 177.50 L 1045.50 180.00 L 1046.50 183.00 L 1040.50 206.00 L 1023.50 303.00 L 1011.00 356.50 Z" fill="#168bd0" fill-rule="evenodd" />
  <path id="logo-part-100" class="logo-part logo-orange-detail" data-layer="orange-detail" d="M 1167.00 116.50 L 1140.50 115.00 L 1142.00 113.50 L 1166.00 114.50 L 1186.00 111.50 L 1202.00 106.50 L 1217.00 98.50 L 1218.50 99.00 L 1205.00 107.50 L 1186.00 113.50 L 1167.00 116.50 Z" fill="#168bd0" fill-rule="evenodd" />
  <path id="logo-part-101" class="logo-part logo-coral" data-layer="coral" d="M 482.00 228.50 L 479.50 227.00 L 481.00 223.50 L 482.00 228.50 Z" fill="#4aafea" fill-rule="evenodd" />
  <path id="logo-part-102" class="logo-part logo-coral" data-layer="coral" d="M 494.00 207.50 L 491.50 204.00 L 494.00 201.50 L 494.00 207.50 Z" fill="#4aafea" fill-rule="evenodd" />
  <path id="logo-part-103" class="logo-part logo-coral" data-layer="coral" d="M 503.00 218.50 L 501.50 215.00 L 506.00 211.50 L 506.50 214.00 L 503.00 218.50 Z" fill="#4aafea" fill-rule="evenodd" />
  <path id="logo-part-104" class="logo-part logo-coral" data-layer="coral" d="M 508.00 172.50 L 506.50 171.00 L 515.50 164.00 L 517.00 160.50 L 526.00 153.50 L 532.50 152.00 L 508.00 172.50 Z" fill="#4aafea" fill-rule="evenodd" />
  <path id="logo-part-105" class="logo-part logo-coral" data-layer="coral" d="M 512.00 700.50 L 508.50 700.00 L 512.00 695.50 L 514.50 698.00 L 512.00 700.50 Z" fill="#4aafea" fill-rule="evenodd" />
  <path id="logo-part-106" class="logo-part logo-coral" data-layer="coral" d="M 537.00 695.50 L 529.00 694.50 L 527.50 692.00 L 531.00 688.50 L 538.00 687.50 L 543.50 683.00 L 541.00 680.50 L 526.00 683.50 L 512.00 682.50 L 512.50 678.00 L 510.50 676.00 L 512.00 666.50 L 558.00 666.50 L 573.00 660.50 L 575.50 663.00 L 563.50 672.00 L 563.50 676.00 L 565.00 677.50 L 577.00 677.50 L 602.00 670.50 L 613.00 664.50 L 620.50 666.00 L 619.50 670.00 L 613.00 674.50 L 603.00 674.50 L 591.00 681.50 L 582.00 681.50 L 566.00 688.50 L 546.00 692.50 L 540.00 691.50 L 537.00 695.50 Z     M 611.50 672.00 L 617.50 667.00 L 610.00 668.50 L 606.50 672.00 L 611.50 672.00 Z" fill="#4aafea" fill-rule="evenodd" />
  <path id="logo-part-107" class="logo-part logo-coral" data-layer="coral" d="M 565.00 633.50 L 560.50 631.00 L 552.50 610.00 L 550.00 607.50 L 544.00 607.50 L 541.50 604.00 L 536.50 593.00 L 535.50 585.00 L 534.00 584.50 L 530.00 590.50 L 524.00 590.50 L 518.50 583.00 L 513.50 567.00 L 511.50 552.00 L 511.50 507.00 L 516.50 447.00 L 522.50 420.00 L 524.50 395.00 L 527.50 390.00 L 527.50 384.00 L 534.00 359.50 L 536.50 360.00 L 532.50 370.00 L 535.50 378.00 L 535.50 397.00 L 537.50 399.00 L 541.50 416.00 L 535.50 450.00 L 535.50 487.00 L 533.50 503.00 L 537.50 505.00 L 539.50 519.00 L 542.50 526.00 L 541.50 533.00 L 543.50 535.00 L 544.50 556.00 L 547.00 561.50 L 549.50 556.00 L 551.50 534.00 L 555.00 530.50 L 559.00 536.50 L 564.00 534.50 L 568.50 546.00 L 567.50 556.00 L 569.50 564.00 L 579.50 580.00 L 578.50 585.00 L 582.50 591.00 L 582.50 605.00 L 580.50 607.00 L 582.50 609.00 L 581.50 621.00 L 574.00 626.50 L 575.50 612.00 L 573.50 596.00 L 569.50 591.00 L 569.50 586.00 L 563.50 574.00 L 563.50 569.00 L 561.50 568.00 L 561.50 565.00 L 557.00 562.50 L 556.50 570.00 L 559.50 580.00 L 559.50 605.00 L 567.50 626.00 L 567.50 631.00 L 565.00 633.50 Z     M 551.50 575.00 L 550.00 559.50 L 548.50 566.00 L 551.50 575.00 Z     M 553.50 546.00 L 555.50 540.00 L 554.00 535.50 L 553.50 546.00 Z     M 519.50 455.00 L 519.00 448.50 L 519.50 455.00 Z     M 566.50 550.00 L 566.00 547.50 L 563.50 549.00 L 566.50 550.00 Z     M 533.50 564.00 L 533.00 558.50 L 533.50 564.00 Z     M 552.50 551.00 L 552.00 546.50 L 552.50 551.00 Z" fill="#4aafea" fill-rule="evenodd" />
  <path id="logo-part-108" class="logo-part logo-coral" data-layer="coral" d="M 531.00 706.50 L 524.00 704.50 L 522.50 700.00 L 518.00 697.50 L 517.50 695.00 L 524.00 695.50 L 527.50 701.00 L 531.50 703.00 L 531.00 706.50 Z" fill="#4aafea" fill-rule="evenodd" />
  <path id="logo-part-109" class="logo-part logo-coral" data-layer="coral" d="M 534.00 152.50 L 534.00 148.50 L 543.00 143.50 L 546.50 144.00 L 534.00 152.50 Z" fill="#4aafea" fill-rule="evenodd" />
  <path id="logo-part-110" class="logo-part logo-coral" data-layer="coral" d="M 548.00 710.50 L 537.00 706.50 L 534.00 708.50 L 533.50 704.00 L 537.00 705.50 L 538.00 703.50 L 551.00 704.50 L 554.00 700.50 L 568.00 691.50 L 575.00 690.50 L 574.50 694.00 L 580.00 695.50 L 585.00 689.50 L 591.00 687.50 L 616.00 687.50 L 635.00 680.50 L 638.50 677.00 L 635.50 675.00 L 637.00 672.50 L 641.00 672.50 L 649.00 668.50 L 655.00 662.50 L 658.00 663.50 L 663.00 661.50 L 659.50 656.00 L 666.00 649.50 L 669.00 651.50 L 671.50 649.00 L 669.50 640.00 L 664.50 636.00 L 664.50 633.00 L 670.00 627.50 L 679.50 624.00 L 676.50 621.00 L 679.50 618.00 L 677.00 613.50 L 674.50 615.00 L 675.50 619.00 L 674.00 620.50 L 670.00 619.50 L 658.00 626.50 L 652.00 627.50 L 647.00 631.50 L 642.00 632.50 L 631.00 641.50 L 628.00 641.50 L 626.50 638.00 L 640.00 626.50 L 656.00 616.50 L 666.00 606.50 L 672.00 605.50 L 684.00 595.50 L 688.00 596.50 L 695.50 582.00 L 702.00 575.50 L 712.50 570.00 L 717.50 563.00 L 717.50 560.00 L 730.50 549.00 L 739.50 537.00 L 739.50 533.00 L 749.50 522.00 L 753.50 508.00 L 761.50 497.00 L 761.50 492.00 L 771.50 484.00 L 773.00 478.50 L 780.00 477.50 L 789.00 487.50 L 799.50 483.00 L 820.50 440.00 L 809.50 473.00 L 795.50 498.00 L 791.00 500.50 L 784.00 498.50 L 784.50 501.00 L 782.00 501.50 L 782.50 497.00 L 776.00 495.50 L 775.00 499.50 L 768.00 500.50 L 765.50 503.00 L 766.50 507.00 L 756.50 517.00 L 757.50 521.00 L 754.50 531.00 L 747.50 535.00 L 746.50 548.00 L 728.50 564.00 L 729.50 571.00 L 740.00 579.50 L 747.00 580.50 L 749.00 587.50 L 757.00 586.50 L 758.00 583.50 L 762.00 586.50 L 763.00 582.50 L 774.00 578.50 L 773.50 576.00 L 777.50 575.00 L 779.50 569.00 L 784.00 568.50 L 783.50 566.00 L 791.50 559.00 L 793.50 550.00 L 799.50 547.00 L 797.50 541.00 L 803.00 539.50 L 808.50 534.00 L 807.50 533.00 L 813.50 528.00 L 813.50 524.00 L 816.00 524.50 L 821.50 520.00 L 820.50 517.00 L 822.50 513.00 L 827.50 509.00 L 827.50 502.00 L 829.50 499.00 L 825.00 493.50 L 822.00 493.50 L 817.00 499.50 L 815.50 497.00 L 827.50 482.00 L 831.50 473.00 L 834.00 470.50 L 841.00 470.50 L 847.00 474.50 L 855.50 481.00 L 855.50 485.00 L 849.50 495.00 L 813.50 546.00 L 770.00 592.50 L 750.00 610.50 L 740.00 616.50 L 721.00 632.50 L 650.00 673.50 L 631.00 686.50 L 617.00 690.50 L 614.00 693.50 L 602.00 693.50 L 600.00 690.50 L 593.00 692.50 L 590.00 690.50 L 580.00 701.50 L 568.00 698.50 L 562.00 707.50 L 556.00 707.50 L 555.00 709.50 L 550.00 707.50 L 548.00 710.50 Z     M 696.50 635.00 L 702.00 628.50 L 705.50 628.00 L 705.50 620.00 L 703.50 617.00 L 709.50 615.00 L 709.50 601.00 L 702.00 594.50 L 699.50 595.00 L 699.50 602.00 L 693.50 606.00 L 694.50 620.00 L 691.50 625.00 L 694.50 630.00 L 694.50 635.00 L 696.50 635.00 Z     M 716.50 598.00 L 725.50 595.00 L 716.00 586.50 L 711.50 595.00 L 713.00 598.50 L 716.50 598.00 Z     M 669.50 634.00 L 675.00 633.50 L 679.50 630.00 L 672.00 630.50 L 666.50 634.00 L 669.50 634.00 Z     M 698.50 639.00 L 699.00 636.50 L 695.50 637.00 L 696.00 639.50 L 698.50 639.00 Z     M 684.50 625.00 L 681.50 623.00 L 682.00 625.50 L 684.50 625.00 Z     M 713.50 584.00 L 710.50 582.00 L 713.50 584.00 Z     M 711.50 592.00 L 711.00 590.50 L 708.50 591.00 L 709.00 592.50 L 711.50 592.00 Z     M 709.50 589.00 L 708.00 586.50 L 707.50 589.00 L 709.50 589.00 Z     M 717.50 602.00 L 717.00 600.50 L 714.50 601.00 L 717.50 602.00 Z     M 675.50 643.00 L 676.00 639.50 L 674.50 640.00 L 675.50 643.00 Z" fill="#4aafea" fill-rule="evenodd" />
  <path id="logo-part-111" class="logo-part logo-coral" data-layer="coral" d="M 540.00 482.50 L 541.00 473.50 L 540.00 482.50 Z" fill="#4aafea" fill-rule="evenodd" />
  <path id="logo-part-112" class="logo-part logo-coral" data-layer="coral" d="M 543.00 468.50 L 540.50 467.00 L 540.50 460.00 L 544.00 457.50 L 546.50 462.00 L 543.00 468.50 Z" fill="#4aafea" fill-rule="evenodd" />
  <path id="logo-part-113" class="logo-part logo-coral" data-layer="coral" d="M 547.00 504.50 L 542.50 501.00 L 545.00 496.50 L 550.50 499.00 L 550.50 502.00 L 547.00 504.50 Z" fill="#4aafea" fill-rule="evenodd" />
  <path id="logo-part-114" class="logo-part logo-coral" data-layer="coral" d="M 544.00 453.50 L 543.50 442.00 L 547.00 438.50 L 550.50 443.00 L 544.00 453.50 Z" fill="#4aafea" fill-rule="evenodd" />
  <path id="logo-part-115" class="logo-part logo-coral" data-layer="coral" d="M 548.00 143.50 L 549.00 139.50 L 556.00 135.50 L 559.50 136.00 L 557.00 139.50 L 548.00 143.50 Z" fill="#4aafea" fill-rule="evenodd" />
  <path id="logo-part-116" class="logo-part logo-coral" data-layer="coral" d="M 553.00 647.50 L 548.50 646.00 L 550.00 641.50 L 554.50 644.00 L 555.50 646.00 L 553.00 647.50 Z" fill="#4aafea" fill-rule="evenodd" />
  <path id="logo-part-117" class="logo-part logo-coral" data-layer="coral" d="M 555.00 409.50 L 551.50 406.00 L 554.00 402.50 L 556.50 405.00 L 555.00 409.50 Z" fill="#4aafea" fill-rule="evenodd" />
  <path id="logo-part-118" class="logo-part logo-coral" data-layer="coral" d="M 560.00 399.50 L 557.50 396.00 L 563.00 388.50 L 563.50 394.00 L 560.00 399.50 Z" fill="#4aafea" fill-rule="evenodd" />
  <path id="logo-part-119" class="logo-part logo-coral" data-layer="coral" d="M 627.00 292.50 L 625.50 292.00 L 626.50 278.00 L 632.50 266.00 L 631.00 259.50 L 621.00 260.50 L 612.50 272.00 L 603.00 278.50 L 584.50 274.00 L 584.50 261.00 L 586.50 252.00 L 589.00 249.50 L 590.50 256.00 L 588.50 259.00 L 592.00 265.50 L 607.50 258.00 L 597.50 247.00 L 597.50 235.00 L 601.50 228.00 L 600.50 224.00 L 597.50 222.00 L 597.50 217.00 L 594.00 217.50 L 587.00 212.50 L 582.50 214.00 L 579.50 222.00 L 581.50 230.00 L 579.50 232.00 L 582.50 235.00 L 579.50 241.00 L 584.50 243.00 L 573.50 277.00 L 571.50 277.00 L 569.50 271.00 L 572.50 265.00 L 571.50 261.00 L 574.50 257.00 L 573.00 254.50 L 569.00 253.50 L 565.50 257.00 L 565.50 261.00 L 560.50 268.00 L 569.50 238.00 L 573.50 231.00 L 575.50 221.00 L 586.50 193.00 L 600.00 192.50 L 606.00 184.50 L 612.00 180.50 L 614.00 180.50 L 615.50 184.00 L 609.50 187.00 L 610.50 192.00 L 607.00 196.50 L 589.00 195.50 L 587.50 200.00 L 604.00 214.50 L 610.00 210.50 L 615.50 212.00 L 615.50 220.00 L 618.50 222.00 L 616.50 225.00 L 618.50 231.00 L 613.50 230.00 L 613.50 233.00 L 615.50 234.00 L 613.50 239.00 L 616.50 243.00 L 612.50 247.00 L 615.50 250.00 L 613.00 254.50 L 621.00 256.50 L 626.00 252.50 L 632.00 254.50 L 635.50 251.00 L 635.50 244.00 L 638.50 238.00 L 637.50 235.00 L 639.50 233.00 L 639.50 227.00 L 637.50 224.00 L 639.50 220.00 L 637.50 203.00 L 642.50 199.00 L 642.00 197.50 L 649.50 201.00 L 649.50 208.00 L 645.50 219.00 L 646.50 231.00 L 642.50 236.00 L 642.50 240.00 L 638.50 247.00 L 636.50 263.00 L 631.50 273.00 L 630.50 285.00 L 627.00 292.50 Z     M 609.50 252.00 L 611.50 251.00 L 608.00 248.50 L 607.50 251.00 L 609.50 252.00 Z     M 600.50 216.00 L 601.50 214.00 L 600.00 212.50 L 598.50 215.00 L 600.50 216.00 Z" fill="#4aafea" fill-rule="evenodd" />
  <path id="logo-part-120" class="logo-part logo-coral" data-layer="coral" d="M 564.00 513.50 L 561.50 510.00 L 561.50 506.00 L 565.00 490.50 L 565.50 509.00 L 564.00 513.50 Z" fill="#4aafea" fill-rule="evenodd" />
  <path id="logo-part-121" class="logo-part logo-coral" data-layer="coral" d="M 566.00 370.50 L 563.50 369.00 L 563.50 364.00 L 566.00 362.50 L 568.50 365.00 L 566.00 370.50 Z" fill="#4aafea" fill-rule="evenodd" />
  <path id="logo-part-122" class="logo-part logo-coral" data-layer="coral" d="M 567.00 379.50 L 564.50 378.00 L 566.00 372.50 L 569.50 376.00 L 567.00 379.50 Z" fill="#4aafea" fill-rule="evenodd" />
  <path id="logo-part-123" class="logo-part logo-coral" data-layer="coral" d="M 572.00 355.50 L 569.50 355.00 L 570.50 348.00 L 566.00 348.50 L 565.50 345.00 L 569.00 343.50 L 571.00 346.50 L 574.00 342.50 L 575.50 347.00 L 572.00 355.50 Z" fill="#4aafea" fill-rule="evenodd" />
  <path id="logo-part-124" class="logo-part logo-coral" data-layer="coral" d="M 568.00 470.50 L 565.50 470.00 L 565.50 467.00 L 569.00 460.50 L 569.50 469.00 L 568.00 470.50 Z" fill="#4aafea" fill-rule="evenodd" />
  <path id="logo-part-125" class="logo-part logo-coral" data-layer="coral" d="M 575.00 165.50 L 571.50 165.00 L 577.00 162.50 L 575.00 165.50 Z" fill="#4aafea" fill-rule="evenodd" />
  <path id="logo-part-126" class="logo-part logo-coral" data-layer="coral" d="M 577.00 420.50 L 573.50 419.00 L 576.00 414.50 L 578.50 416.00 L 577.00 420.50 Z" fill="#4aafea" fill-rule="evenodd" />
  <path id="logo-part-127" class="logo-part logo-coral" data-layer="coral" d="M 581.00 397.50 L 577.50 396.00 L 577.50 393.00 L 583.00 389.50 L 583.50 395.00 L 581.00 397.50 Z" fill="#4aafea" fill-rule="evenodd" />
  <path id="logo-part-128" class="logo-part logo-coral" data-layer="coral" d="M 583.00 318.50 L 579.50 317.00 L 582.00 311.50 L 585.50 315.00 L 583.00 318.50 Z" fill="#4aafea" fill-rule="evenodd" />
  <path id="logo-part-129" class="logo-part logo-coral" data-layer="coral" d="M 583.00 533.50 L 579.50 532.00 L 582.00 524.50 L 584.50 527.00 L 583.00 533.50 Z" fill="#4aafea" fill-rule="evenodd" />
  <path id="logo-part-130" class="logo-part logo-coral" data-layer="coral" d="M 585.00 374.50 L 581.50 372.00 L 583.50 368.00 L 587.00 366.50 L 585.00 374.50 Z" fill="#4aafea" fill-rule="evenodd" />
  <path id="logo-part-131" class="logo-part logo-coral" data-layer="coral" d="M 583.00 557.50 L 581.50 553.00 L 583.00 548.50 L 583.00 557.50 Z" fill="#4aafea" fill-rule="evenodd" />
  <path id="logo-part-132" class="logo-part logo-coral" data-layer="coral" d="M 586.00 304.50 L 582.50 300.00 L 583.00 296.50 L 587.50 301.00 L 586.00 304.50 Z" fill="#4aafea" fill-rule="evenodd" />
  <path id="logo-part-133" class="logo-part logo-coral" data-layer="coral" d="M 592.00 159.50 L 586.50 159.00 L 593.00 156.50 L 592.00 159.50 Z" fill="#4aafea" fill-rule="evenodd" />
  <path id="logo-part-134" class="logo-part logo-coral" data-layer="coral" d="M 591.00 337.50 L 589.50 334.00 L 592.50 329.00 L 593.50 322.00 L 597.00 320.50 L 597.50 325.00 L 593.50 329.00 L 593.50 334.00 L 591.00 337.50 Z" fill="#4aafea" fill-rule="evenodd" />
  <path id="logo-part-135" class="logo-part logo-coral" data-layer="coral" d="M 597.00 317.50 L 593.50 312.00 L 593.50 308.00 L 599.00 303.50 L 600.50 309.00 L 597.00 317.50 Z     M 597.50 312.00 L 598.50 309.00 L 596.00 308.50 L 594.50 310.00 L 597.50 312.00 Z" fill="#4aafea" fill-rule="evenodd" />
  <path id="logo-part-136" class="logo-part logo-coral" data-layer="coral" d="M 598.00 146.50 L 595.50 144.00 L 598.00 141.50 L 603.50 144.00 L 598.00 146.50 Z" fill="#4aafea" fill-rule="evenodd" />
  <path id="logo-part-137" class="logo-part logo-coral" data-layer="coral" d="M 599.00 302.50 L 597.50 301.00 L 601.00 297.50 L 601.50 300.00 L 599.00 302.50 Z" fill="#4aafea" fill-rule="evenodd" />
  <path id="logo-part-138" class="logo-part logo-coral" data-layer="coral" d="M 606.00 134.50 L 604.00 131.50 L 614.00 128.50 L 617.00 129.50 L 629.00 126.50 L 643.00 126.50 L 644.50 128.00 L 626.00 131.50 L 609.00 131.50 L 606.00 134.50 Z" fill="#4aafea" fill-rule="evenodd" />
  <path id="logo-part-139" class="logo-part logo-coral" data-layer="coral" d="M 605.00 393.50 L 603.50 393.00 L 603.50 388.00 L 606.50 383.00 L 606.00 378.50 L 607.50 380.00 L 607.50 391.00 L 605.00 393.50 Z" fill="#4aafea" fill-rule="evenodd" />
  <path id="logo-part-140" class="logo-part logo-coral" data-layer="coral" d="M 609.00 368.50 L 607.50 368.00 L 611.50 360.00 L 611.50 351.00 L 613.00 350.50 L 614.50 354.00 L 613.50 360.00 L 609.00 368.50 Z" fill="#4aafea" fill-rule="evenodd" />
  <path id="logo-part-141" class="logo-part logo-coral" data-layer="coral" d="M 806.00 313.50 L 804.50 313.00 L 795.50 277.00 L 777.50 238.00 L 759.50 213.00 L 748.00 200.50 L 715.00 176.50 L 696.00 168.50 L 694.00 165.50 L 685.00 162.50 L 684.00 160.50 L 677.00 160.50 L 672.00 156.50 L 663.00 156.50 L 652.00 152.50 L 650.00 154.50 L 637.00 152.50 L 619.00 152.50 L 612.00 154.50 L 609.50 152.00 L 613.00 148.50 L 617.50 148.00 L 614.00 146.50 L 613.50 144.00 L 616.00 142.50 L 628.00 144.50 L 638.00 143.50 L 647.00 146.50 L 650.00 144.50 L 652.00 146.50 L 659.00 145.50 L 665.00 149.50 L 671.00 148.50 L 673.50 150.00 L 673.00 147.50 L 666.00 147.50 L 664.00 144.50 L 658.00 144.50 L 657.00 142.50 L 649.50 140.00 L 658.00 139.50 L 661.00 141.50 L 663.00 140.50 L 688.00 147.50 L 694.00 147.50 L 723.00 159.50 L 735.00 169.50 L 736.00 168.50 L 740.00 173.50 L 759.00 185.50 L 773.50 201.00 L 799.50 238.00 L 798.50 239.00 L 803.50 245.00 L 808.50 261.00 L 810.50 262.00 L 819.50 284.00 L 819.50 300.00 L 822.50 301.00 L 818.00 306.50 L 817.50 301.00 L 814.00 302.50 L 813.00 298.50 L 806.00 294.50 L 805.50 310.00 L 807.50 311.00 L 806.00 313.50 Z     M 797.50 260.00 L 800.50 258.00 L 797.50 253.00 L 801.50 249.00 L 798.00 250.50 L 795.00 248.50 L 797.50 243.00 L 793.00 238.50 L 789.00 238.50 L 786.50 242.00 L 786.50 247.00 L 790.50 252.00 L 791.50 257.00 L 797.50 260.00 Z     M 757.50 197.00 L 760.50 196.00 L 759.00 192.50 L 755.00 190.50 L 754.00 192.50 L 751.00 186.50 L 746.50 188.00 L 750.00 195.50 L 757.50 197.00 Z     M 684.50 153.00 L 685.50 151.00 L 684.00 149.50 L 678.50 149.00 L 681.00 152.50 L 684.50 153.00 Z     M 676.50 154.00 L 670.00 152.50 L 669.00 150.50 L 665.50 153.00 L 676.50 154.00 Z     M 689.50 153.00 L 688.00 150.50 L 687.50 153.00 L 689.50 153.00 Z" fill="#4aafea" fill-rule="evenodd" />
  <path id="logo-part-142" class="logo-part logo-coral" data-layer="coral" d="M 617.00 332.50 L 613.50 327.00 L 617.50 326.00 L 615.50 323.00 L 617.50 314.00 L 610.50 308.00 L 617.00 308.50 L 620.50 302.00 L 624.00 300.50 L 624.50 305.00 L 622.50 312.00 L 619.50 315.00 L 619.50 325.00 L 617.50 327.00 L 618.50 331.00 L 617.00 332.50 Z" fill="#4aafea" fill-rule="evenodd" />
  <path id="logo-part-143" class="logo-part logo-coral" data-layer="coral" d="M 621.00 204.50 L 618.00 204.50 L 617.50 202.00 L 620.00 201.50 L 621.00 204.50 Z" fill="#4aafea" fill-rule="evenodd" />
  <path id="logo-part-144" class="logo-part logo-coral" data-layer="coral" d="M 642.00 194.50 L 638.50 194.00 L 638.50 191.00 L 634.00 185.50 L 630.00 186.50 L 625.00 180.50 L 621.50 180.00 L 629.00 178.50 L 632.00 182.50 L 637.50 185.00 L 642.50 192.00 L 642.00 194.50 Z" fill="#4aafea" fill-rule="evenodd" />
  <path id="logo-part-145" class="logo-part logo-coral" data-layer="coral" d="M 639.00 662.50 L 636.00 662.50 L 634.50 660.00 L 634.50 657.00 L 638.00 652.50 L 643.00 649.50 L 648.00 649.50 L 659.00 640.50 L 663.50 643.00 L 663.50 646.00 L 659.00 652.50 L 652.00 653.50 L 647.00 658.50 L 639.00 662.50 Z     M 638.50 659.00 L 646.50 652.00 L 643.00 651.50 L 639.00 654.50 L 637.50 656.00 L 638.50 659.00 Z     M 655.50 648.00 L 660.50 644.00 L 653.50 647.00 L 655.50 648.00 Z" fill="#4aafea" fill-rule="evenodd" />
  <path id="logo-part-146" class="logo-part logo-coral" data-layer="coral" d="M 707.00 614.50 L 703.50 614.00 L 703.50 611.00 L 701.50 610.00 L 702.00 604.50 L 707.50 606.00 L 707.00 614.50 Z" fill="#4aafea" fill-rule="evenodd" />
  <path id="logo-part-147" class="logo-part logo-coral" data-layer="coral" d="M 763.00 561.50 L 761.50 561.00 L 762.00 556.50 L 764.50 558.00 L 763.00 561.50 Z" fill="#4aafea" fill-rule="evenodd" />
  <path id="logo-part-148" class="logo-part logo-coral" data-layer="coral" d="M 765.00 554.50 L 763.50 552.00 L 765.50 549.00 L 781.50 531.00 L 786.50 521.00 L 796.00 511.50 L 797.50 513.00 L 794.50 518.00 L 765.00 554.50 Z" fill="#4aafea" fill-rule="evenodd" />
  <path id="logo-part-149" class="logo-part logo-coral" data-layer="coral" d="M 768.00 556.50 L 769.50 552.00 L 775.00 546.50 L 771.50 554.00 L 768.00 556.50 Z" fill="#4aafea" fill-rule="evenodd" />
  <path id="logo-part-150" class="logo-part logo-coral" data-layer="coral" d="M 1060.00 679.50 L 1039.00 679.50 L 1031.00 677.50 L 1010.00 665.50 L 992.50 650.00 L 981.50 632.00 L 970.50 598.00 L 965.50 555.00 L 964.50 531.00 L 967.50 475.00 L 982.50 386.00 L 983.50 370.00 L 1006.50 258.00 L 1009.50 251.00 L 1015.50 219.00 L 1027.50 172.00 L 1021.00 169.50 L 994.00 166.50 L 953.00 165.50 L 933.00 168.50 L 914.00 176.50 L 908.00 180.50 L 900.50 190.00 L 899.50 199.00 L 901.50 206.00 L 919.00 219.50 L 928.00 219.50 L 937.50 224.00 L 935.00 227.50 L 929.00 230.50 L 917.00 232.50 L 898.00 226.50 L 888.50 219.00 L 878.50 207.00 L 870.50 189.00 L 869.50 176.00 L 871.50 164.00 L 883.50 140.00 L 899.00 121.50 L 913.00 112.50 L 939.00 103.50 L 990.00 95.50 L 1123.00 99.50 L 1182.00 92.50 L 1211.00 84.50 L 1231.00 74.50 L 1245.50 62.00 L 1254.50 48.00 L 1258.50 36.00 L 1258.50 28.00 L 1262.00 23.50 L 1267.50 31.00 L 1268.50 40.00 L 1273.50 53.00 L 1278.50 59.00 L 1277.50 64.00 L 1279.50 75.00 L 1276.50 85.00 L 1277.50 90.00 L 1275.50 98.00 L 1272.50 101.00 L 1274.50 104.00 L 1268.50 114.00 L 1267.00 112.50 L 1264.00 117.50 L 1262.00 116.50 L 1262.50 119.00 L 1260.00 119.50 L 1241.00 138.50 L 1234.00 139.50 L 1229.00 143.50 L 1220.00 145.50 L 1204.00 154.50 L 1195.00 155.50 L 1181.00 160.50 L 1158.00 163.50 L 1104.00 164.50 L 1093.00 161.50 L 1083.00 163.50 L 1080.50 158.00 L 1074.00 153.50 L 1067.50 161.00 L 1058.50 182.00 L 1045.50 248.00 L 1046.50 255.00 L 1044.50 270.00 L 1046.00 276.50 L 1049.00 276.50 L 1053.50 273.00 L 1053.50 291.00 L 1055.50 293.00 L 1054.50 306.00 L 1056.50 316.00 L 1055.50 332.00 L 1057.50 334.00 L 1057.50 343.00 L 1055.50 351.00 L 1051.50 355.00 L 1052.50 361.00 L 1049.50 365.00 L 1048.50 376.00 L 1046.50 377.00 L 1049.50 383.00 L 1045.50 387.00 L 1047.50 389.00 L 1047.50 396.00 L 1045.50 399.00 L 1046.50 405.00 L 1037.50 468.00 L 1034.50 474.00 L 1035.50 483.00 L 1032.50 486.00 L 1033.50 492.00 L 1029.50 498.00 L 1029.50 507.00 L 1023.50 510.00 L 1024.00 512.50 L 1028.00 511.50 L 1029.50 513.00 L 1025.50 521.00 L 1025.50 527.00 L 1024.00 528.50 L 1022.00 526.50 L 1013.50 527.00 L 1008.50 540.00 L 1008.50 548.00 L 1007.00 548.50 L 1003.50 523.00 L 1004.50 462.00 L 999.50 464.00 L 998.50 471.00 L 1000.50 478.00 L 998.50 483.00 L 999.50 495.00 L 995.50 540.00 L 997.50 570.00 L 1001.50 594.00 L 1011.50 626.00 L 1017.50 638.00 L 1028.00 651.50 L 1046.00 664.50 L 1059.00 668.50 L 1082.50 671.00 L 1060.00 679.50 Z     M 1171.50 141.00 L 1185.00 140.50 L 1210.00 133.50 L 1218.00 134.50 L 1220.00 129.50 L 1237.00 118.50 L 1257.50 98.00 L 1267.50 83.00 L 1273.50 67.00 L 1273.50 60.00 L 1272.00 61.50 L 1266.50 61.00 L 1265.50 67.00 L 1249.50 88.00 L 1237.00 100.50 L 1211.00 116.50 L 1182.00 127.50 L 1154.00 132.50 L 1134.00 133.50 L 1131.50 136.00 L 1134.00 139.50 L 1171.50 141.00 Z     M 1012.50 340.00 L 1028.50 262.00 L 1032.50 230.00 L 1043.50 185.00 L 1042.00 180.50 L 1038.50 185.00 L 1034.50 199.00 L 1021.50 261.00 L 1015.50 306.00 L 1016.50 311.00 L 1014.50 324.00 L 1011.50 330.00 L 1012.50 333.00 L 1010.50 339.00 L 1012.50 340.00 Z     M 888.50 164.00 L 908.00 144.50 L 932.00 132.50 L 954.00 127.50 L 986.50 126.00 L 983.00 123.50 L 952.00 123.50 L 924.00 130.50 L 903.00 142.50 L 891.50 155.00 L 887.50 162.00 L 888.50 164.00 Z     M 1168.50 113.00 L 1186.00 110.50 L 1201.00 105.50 L 1203.50 103.00 L 1152.50 112.00 L 1155.00 113.50 L 1168.50 113.00 Z     M 988.50 591.00 L 989.50 581.00 L 986.00 579.50 L 984.50 585.00 L 985.50 589.00 L 988.50 591.00 Z     M 1020.50 423.00 L 1022.50 421.00 L 1021.00 417.50 L 1017.50 420.00 L 1018.00 422.50 L 1020.50 423.00 Z     M 1023.50 447.00 L 1025.50 445.00 L 1024.00 441.50 L 1020.50 444.00 L 1021.00 446.50 L 1023.50 447.00 Z     M 1011.50 445.00 L 1012.50 442.00 L 1009.00 439.50 L 1008.50 445.00 L 1011.50 445.00 Z     M 1026.50 402.00 L 1028.50 401.00 L 1028.00 398.50 L 1022.50 401.00 L 1023.00 402.50 L 1026.50 402.00 Z     M 1032.50 482.00 L 1033.50 480.00 L 1030.00 477.50 L 1028.50 481.00 L 1032.50 482.00 Z     M 1027.50 439.00 L 1028.50 437.00 L 1026.00 434.50 L 1024.50 438.00 L 1027.50 439.00 Z     M 1026.50 473.00 L 1028.50 471.00 L 1027.00 468.50 L 1023.50 472.00 L 1026.50 473.00 Z     M 1034.50 452.00 L 1035.50 450.00 L 1033.00 448.50 L 1032.50 451.00 L 1034.50 452.00 Z     M 1022.50 502.00 L 1021.00 499.50 L 1020.50 502.00 L 1022.50 502.00 Z     M 1209.50 102.00 L 1210.00 100.50 L 1206.50 102.00 L 1209.50 102.00 Z" fill="#3aa5e8" fill-rule="evenodd" />
  <path id="logo-part-151" class="logo-part logo-magenta" data-layer="magenta" d="M 1081.00 670.50 L 1059.00 668.50 L 1046.00 664.50 L 1028.00 651.50 L 1017.50 638.00 L 1011.50 626.00 L 1001.50 594.00 L 997.50 570.00 L 995.50 540.00 L 999.50 495.00 L 998.50 483.00 L 1000.50 478.00 L 998.50 466.00 L 1000.00 463.50 L 1004.00 462.50 L 1003.50 523.00 L 1005.50 545.00 L 1008.00 548.50 L 1008.50 540.00 L 1013.50 527.00 L 1022.00 526.50 L 1024.00 528.50 L 1027.00 518.50 L 1027.50 529.00 L 1024.50 541.00 L 1025.50 565.00 L 1029.50 590.00 L 1033.50 601.00 L 1036.00 602.50 L 1032.50 571.00 L 1033.50 532.00 L 1037.50 495.00 L 1037.50 477.00 L 1034.50 474.00 L 1037.50 471.00 L 1046.50 405.00 L 1045.50 399.00 L 1047.50 396.00 L 1046.50 387.00 L 1049.50 383.00 L 1046.50 378.00 L 1048.50 376.00 L 1049.50 365.00 L 1052.50 361.00 L 1051.50 355.00 L 1055.50 351.00 L 1057.50 343.00 L 1057.50 334.00 L 1055.50 332.00 L 1055.50 293.00 L 1053.50 291.00 L 1054.50 280.00 L 1053.00 272.50 L 1049.00 276.50 L 1044.50 275.00 L 1046.50 255.00 L 1045.50 248.00 L 1058.50 182.00 L 1067.50 161.00 L 1074.00 153.50 L 1080.50 158.00 L 1083.00 163.50 L 1093.00 161.50 L 1104.00 164.50 L 1144.00 164.50 L 1181.00 160.50 L 1195.00 155.50 L 1204.00 154.50 L 1220.00 145.50 L 1229.00 143.50 L 1234.00 139.50 L 1241.00 138.50 L 1261.00 119.50 L 1260.50 124.00 L 1232.00 150.50 L 1205.00 165.50 L 1182.00 172.50 L 1148.00 178.50 L 1111.00 178.50 L 1108.50 183.00 L 1107.50 196.00 L 1095.50 237.00 L 1067.50 361.00 L 1058.50 412.00 L 1047.50 496.00 L 1043.50 567.00 L 1046.50 598.00 L 1056.50 629.00 L 1065.00 638.50 L 1075.00 642.50 L 1083.00 642.50 L 1096.00 637.50 L 1105.00 631.50 L 1122.50 612.00 L 1137.50 588.00 L 1145.50 569.00 L 1150.00 566.50 L 1155.00 559.50 L 1156.50 560.00 L 1156.50 566.00 L 1147.50 606.00 L 1130.50 639.00 L 1116.00 654.50 L 1106.00 661.50 L 1081.00 670.50 Z     M 1008.50 562.00 L 1008.00 550.50 L 1005.50 553.00 L 1006.50 560.00 L 1008.50 562.00 Z" fill="#0a5ea6" fill-rule="evenodd" />
  <path id="logo-part-152" class="logo-part logo-magenta" data-layer="magenta" d="M 1011.00 444.50 L 1008.50 443.00 L 1010.00 440.50 L 1011.50 441.00 L 1011.00 444.50 Z" fill="#0a5ea6" fill-rule="evenodd" />
  <path id="logo-part-153" class="logo-part logo-magenta" data-layer="magenta" d="M 1023.00 446.50 L 1020.50 446.00 L 1022.00 442.50 L 1024.50 443.00 L 1023.00 446.50 Z" fill="#0a5ea6" fill-rule="evenodd" />
  <path id="logo-part-154" class="logo-part logo-magenta" data-layer="magenta" d="M 1027.00 512.50 L 1023.50 512.00 L 1026.00 508.50 L 1028.50 509.00 L 1027.00 512.50 Z" fill="#0a5ea6" fill-rule="evenodd" />
  <path id="logo-part-155" class="logo-part logo-magenta" data-layer="magenta" d="M 1032.00 482.50 L 1029.50 481.00 L 1030.00 478.50 L 1033.50 480.00 L 1032.00 482.50 Z" fill="#0a5ea6" fill-rule="evenodd" />
  <path id="logo-part-156" class="logo-part logo-magenta-detail" data-layer="magenta-detail" d="M 551.00 575.50 L 548.50 566.00 L 550.00 559.50 L 551.00 575.50 Z" fill="#075398" fill-rule="evenodd" />
  <path id="logo-part-157" class="logo-part logo-magenta-detail" data-layer="magenta-detail" d="M 553.00 546.50 L 554.00 535.50 L 555.50 540.00 L 553.00 546.50 Z" fill="#075398" fill-rule="evenodd" />
  <path id="logo-part-158" class="logo-part logo-magenta-detail" data-layer="magenta-detail" d="M 597.00 312.50 L 594.50 310.00 L 596.00 308.50 L 598.50 309.00 L 597.00 312.50 Z" fill="#075398" fill-rule="evenodd" />
  <path id="logo-part-159" class="logo-part logo-magenta-detail" data-layer="magenta-detail" d="M 611.00 672.50 L 606.50 672.00 L 610.00 668.50 L 617.50 667.00 L 614.00 671.50 L 611.00 672.50 Z" fill="#075398" fill-rule="evenodd" />
  <path id="logo-part-160" class="logo-part logo-magenta-detail" data-layer="magenta-detail" d="M 638.00 659.50 L 637.50 656.00 L 639.00 654.50 L 643.00 651.50 L 646.50 652.00 L 642.00 657.50 L 638.00 659.50 Z" fill="#075398" fill-rule="evenodd" />
  <path id="logo-part-161" class="logo-part logo-magenta-detail" data-layer="magenta-detail" d="M 655.00 648.50 L 654.00 646.50 L 659.00 643.50 L 660.50 644.00 L 655.00 648.50 Z" fill="#075398" fill-rule="evenodd" />
  <path id="logo-part-162" class="logo-part logo-magenta-detail" data-layer="magenta-detail" d="M 669.00 634.50 L 666.50 634.00 L 672.00 630.50 L 679.50 630.00 L 675.00 633.50 L 669.00 634.50 Z" fill="#075398" fill-rule="evenodd" />
  <path id="logo-part-163" class="logo-part logo-magenta-detail" data-layer="magenta-detail" d="M 1084.00 669.50 L 1073.00 669.50 L 1051.00 665.50 L 1034.00 655.50 L 1019.50 639.00 L 1011.50 623.00 L 1001.50 587.00 L 998.50 568.00 L 998.50 549.00 L 996.50 535.00 L 998.50 524.00 L 997.50 513.00 L 999.50 506.00 L 998.50 484.00 L 1001.50 476.00 L 998.50 467.00 L 1004.00 461.50 L 1001.50 503.00 L 1003.50 524.00 L 1002.50 535.00 L 1006.50 567.00 L 1008.00 569.50 L 1012.50 530.00 L 1015.00 527.50 L 1021.00 527.50 L 1023.50 531.00 L 1024.50 537.00 L 1024.50 553.00 L 1027.50 581.00 L 1030.50 594.00 L 1034.50 603.00 L 1036.00 603.50 L 1032.50 560.00 L 1035.50 506.00 L 1038.50 487.00 L 1038.50 476.00 L 1036.50 475.00 L 1036.50 473.00 L 1039.50 469.00 L 1042.50 438.00 L 1046.50 418.00 L 1046.50 400.00 L 1048.50 397.00 L 1048.50 389.00 L 1051.50 377.00 L 1049.50 372.00 L 1052.50 372.00 L 1055.50 359.00 L 1051.50 355.00 L 1053.00 353.50 L 1055.00 355.50 L 1056.50 354.00 L 1059.50 338.00 L 1059.50 331.00 L 1057.50 329.00 L 1061.00 328.50 L 1062.00 330.50 L 1064.00 328.50 L 1064.50 331.00 L 1067.00 332.50 L 1070.50 330.00 L 1069.50 328.00 L 1071.50 328.00 L 1071.50 322.00 L 1074.50 315.00 L 1072.50 313.00 L 1071.50 302.00 L 1073.00 300.50 L 1075.50 301.00 L 1074.00 298.50 L 1071.50 298.00 L 1073.50 297.00 L 1072.50 293.00 L 1074.50 292.00 L 1072.50 291.00 L 1072.50 289.00 L 1076.50 286.00 L 1074.50 290.00 L 1077.00 290.50 L 1078.50 293.00 L 1078.00 297.50 L 1081.50 289.00 L 1083.50 275.00 L 1082.00 272.50 L 1080.00 276.50 L 1078.00 277.50 L 1076.50 276.00 L 1079.50 270.00 L 1082.50 269.00 L 1080.50 267.00 L 1082.50 264.00 L 1084.00 262.50 L 1086.00 263.50 L 1088.50 259.00 L 1089.50 249.00 L 1087.50 248.00 L 1087.50 239.00 L 1089.00 236.50 L 1092.00 238.50 L 1093.50 237.00 L 1089.50 235.00 L 1091.50 229.00 L 1088.50 226.00 L 1090.50 222.00 L 1084.50 213.00 L 1085.50 212.00 L 1084.00 210.50 L 1081.00 211.50 L 1078.50 207.00 L 1080.00 205.50 L 1081.00 208.50 L 1085.00 209.50 L 1089.00 205.50 L 1091.50 206.00 L 1087.50 200.00 L 1089.50 198.00 L 1086.50 196.00 L 1087.50 188.00 L 1092.00 191.50 L 1097.00 187.50 L 1099.00 187.50 L 1102.00 190.50 L 1101.50 183.00 L 1103.50 181.00 L 1102.00 177.50 L 1097.50 177.00 L 1103.50 175.00 L 1099.00 168.50 L 1090.00 168.50 L 1089.00 165.50 L 1086.00 167.50 L 1083.50 166.00 L 1089.00 162.50 L 1094.00 162.50 L 1101.00 165.50 L 1140.00 166.50 L 1180.00 161.50 L 1195.00 156.50 L 1206.00 155.50 L 1210.00 151.50 L 1216.00 150.50 L 1220.00 146.50 L 1223.00 146.50 L 1225.00 144.50 L 1230.00 145.50 L 1235.00 140.50 L 1238.00 141.50 L 1260.00 119.50 L 1261.00 120.50 L 1262.50 119.00 L 1262.00 116.50 L 1264.50 119.00 L 1261.50 123.00 L 1232.00 150.50 L 1230.00 150.50 L 1218.00 159.50 L 1205.00 165.50 L 1177.00 173.50 L 1160.00 175.50 L 1155.00 177.50 L 1113.00 177.50 L 1110.00 178.50 L 1108.50 181.00 L 1106.50 199.00 L 1093.50 245.00 L 1092.50 255.00 L 1079.50 304.00 L 1076.50 324.00 L 1067.50 360.00 L 1060.50 406.00 L 1058.50 411.00 L 1058.50 421.00 L 1048.50 487.00 L 1044.50 533.00 L 1043.50 567.00 L 1045.50 577.00 L 1046.50 598.00 L 1056.50 629.00 L 1065.00 638.50 L 1075.00 642.50 L 1083.00 642.50 L 1096.00 637.50 L 1105.00 631.50 L 1122.50 612.00 L 1136.50 590.00 L 1145.50 569.00 L 1148.00 566.50 L 1151.00 566.50 L 1155.00 559.50 L 1156.50 560.00 L 1156.50 566.00 L 1147.50 606.00 L 1138.50 626.00 L 1130.50 639.00 L 1116.00 654.50 L 1106.00 661.50 L 1084.00 669.50 Z     M 1046.50 473.00 L 1049.50 462.00 L 1048.50 453.00 L 1050.50 450.00 L 1046.00 443.50 L 1043.50 468.00 L 1046.50 470.00 L 1044.50 473.00 L 1046.50 473.00 Z     M 1114.50 649.00 L 1114.50 645.00 L 1117.00 645.50 L 1118.50 641.00 L 1120.00 641.50 L 1124.50 637.00 L 1124.50 635.00 L 1126.00 635.50 L 1128.50 633.00 L 1128.00 629.50 L 1125.00 629.50 L 1122.00 633.50 L 1119.50 631.00 L 1120.50 636.00 L 1118.50 637.00 L 1119.00 638.50 L 1115.50 638.00 L 1116.50 643.00 L 1114.00 642.50 L 1111.50 648.00 L 1112.00 649.50 L 1114.50 649.00 Z     M 1141.50 608.00 L 1141.50 605.00 L 1143.00 606.50 L 1143.50 604.00 L 1145.50 603.00 L 1144.00 596.50 L 1142.00 599.50 L 1139.50 599.00 L 1139.50 604.00 L 1136.50 604.00 L 1141.50 608.00 Z     M 1133.50 628.00 L 1130.50 626.00 L 1132.50 623.00 L 1132.00 620.50 L 1129.00 625.50 L 1126.50 624.00 L 1126.50 620.00 L 1124.50 620.00 L 1122.50 624.00 L 1123.00 626.50 L 1126.00 625.50 L 1127.00 627.50 L 1133.50 628.00 Z     M 1145.50 591.00 L 1144.50 588.00 L 1146.50 587.00 L 1146.50 585.00 L 1144.50 584.00 L 1144.00 581.50 L 1140.50 589.00 L 1144.00 591.50 L 1145.50 591.00 Z     M 1116.50 174.00 L 1119.50 171.00 L 1118.00 169.50 L 1116.00 171.50 L 1112.00 170.50 L 1112.00 173.50 L 1111.00 172.50 L 1108.50 174.00 L 1116.50 174.00 Z     M 1177.50 167.00 L 1177.00 165.50 L 1173.50 166.00 L 1175.00 167.50 L 1177.50 167.00 Z     M 1047.50 442.00 L 1048.50 440.00 L 1047.00 438.50 L 1045.50 442.00 L 1047.50 442.00 Z     M 1051.50 444.00 L 1050.00 441.50 L 1048.50 442.00 L 1049.00 444.50 L 1051.50 444.00 Z     M 1151.50 573.00 L 1152.50 570.00 L 1151.00 568.50 L 1151.50 573.00 Z     M 1150.50 579.00 L 1148.00 575.50 L 1148.50 579.00 L 1150.50 579.00 Z     M 1095.50 229.00 L 1095.00 227.50 L 1092.50 228.00 L 1093.00 229.50 L 1095.50 229.00 Z     M 1085.50 268.00 L 1085.00 264.50 L 1083.50 267.00 L 1085.50 268.00 Z     M 1147.50 581.00 L 1147.00 579.50 L 1144.50 580.00 L 1145.00 581.50 L 1147.50 581.00 Z     M 1142.50 595.00 L 1141.00 592.50 L 1139.50 595.00 L 1142.50 595.00 Z     M 1133.50 612.00 L 1134.50 611.00 L 1132.00 609.50 L 1130.50 611.00 L 1133.50 612.00 Z     M 1048.50 437.00 L 1047.00 434.50 L 1046.50 437.00 L 1048.50 437.00 Z     M 1149.50 584.00 L 1149.00 581.50 L 1147.50 584.00 L 1149.50 584.00 Z     M 1129.50 616.00 L 1128.00 613.50 L 1127.50 616.00 L 1129.50 616.00 Z" fill="#075398" fill-rule="evenodd" />
  <path id="logo-part-164" class="logo-part logo-magenta-detail" data-layer="magenta-detail" d="M 1011.00 445.50 L 1008.50 445.00 L 1009.00 439.50 L 1011.00 439.50 L 1012.50 442.00 L 1011.00 445.50 Z" fill="#075398" fill-rule="evenodd" />
  <path id="logo-part-165" class="logo-part logo-magenta-detail" data-layer="magenta-detail" d="M 1020.00 423.50 L 1017.50 422.00 L 1017.50 420.00 L 1021.00 417.50 L 1022.50 421.00 L 1020.00 423.50 Z" fill="#075398" fill-rule="evenodd" />
  <path id="logo-part-166" class="logo-part logo-magenta-detail" data-layer="magenta-detail" d="M 1023.00 447.50 L 1020.50 446.00 L 1020.50 444.00 L 1024.00 441.50 L 1025.50 445.00 L 1023.00 447.50 Z" fill="#075398" fill-rule="evenodd" />
  <path id="logo-part-167" class="logo-part logo-magenta-detail" data-layer="magenta-detail" d="M 1026.00 402.50 L 1023.00 402.50 L 1022.50 401.00 L 1025.00 398.50 L 1028.00 398.50 L 1028.50 401.00 L 1026.00 402.50 Z" fill="#075398" fill-rule="evenodd" />
  <path id="logo-part-168" class="logo-part logo-magenta-detail" data-layer="magenta-detail" d="M 1026.00 473.50 L 1023.50 472.00 L 1027.00 468.50 L 1028.50 471.00 L 1026.00 473.50 Z" fill="#075398" fill-rule="evenodd" />
  <path id="logo-part-169" class="logo-part logo-magenta-detail" data-layer="magenta-detail" d="M 1026.00 512.50 L 1024.00 512.50 L 1023.50 510.00 L 1027.00 507.50 L 1026.00 512.50 Z" fill="#075398" fill-rule="evenodd" />
  <path id="logo-part-170" class="logo-part logo-magenta-detail" data-layer="magenta-detail" d="M 1027.00 439.50 L 1024.50 438.00 L 1026.00 434.50 L 1028.50 437.00 L 1027.00 439.50 Z" fill="#075398" fill-rule="evenodd" />
  <path id="logo-part-171" class="logo-part logo-magenta-detail" data-layer="magenta-detail" d="M 1032.00 482.50 L 1028.50 481.00 L 1030.00 477.50 L 1033.50 480.00 L 1032.00 482.50 Z" fill="#075398" fill-rule="evenodd" />
  <path id="logo-part-172" class="logo-part logo-magenta-detail" data-layer="magenta-detail" d="M 1048.00 276.50 L 1045.50 276.00 L 1047.50 253.00 L 1046.50 247.00 L 1048.50 242.00 L 1048.50 235.00 L 1054.50 201.00 L 1060.50 180.00 L 1068.50 164.00 L 1069.50 159.00 L 1072.00 154.50 L 1075.00 154.50 L 1079.50 158.00 L 1082.50 166.00 L 1081.00 167.50 L 1079.00 164.50 L 1076.50 166.00 L 1079.00 169.50 L 1082.50 170.00 L 1082.00 171.50 L 1078.50 171.00 L 1080.50 173.00 L 1077.50 175.00 L 1080.50 177.00 L 1080.50 179.00 L 1079.00 178.50 L 1078.50 180.00 L 1080.50 181.00 L 1082.50 188.00 L 1085.00 187.50 L 1085.50 189.00 L 1084.00 191.50 L 1080.00 192.50 L 1078.00 188.50 L 1077.00 192.50 L 1072.00 193.50 L 1071.50 186.00 L 1069.50 187.00 L 1069.50 192.00 L 1066.50 198.00 L 1063.50 212.00 L 1061.50 231.00 L 1058.50 237.00 L 1054.50 263.00 L 1052.50 271.00 L 1048.00 276.50 Z     M 1074.50 165.00 L 1078.50 164.00 L 1078.50 161.00 L 1076.00 157.50 L 1073.50 164.00 L 1074.50 165.00 Z     M 1062.50 204.00 L 1063.50 202.00 L 1062.00 199.50 L 1060.50 203.00 L 1062.50 204.00 Z     M 1075.50 171.00 L 1076.50 170.00 L 1074.00 167.50 L 1072.50 169.00 L 1075.50 171.00 Z" fill="#075398" fill-rule="evenodd" />
</svg>