<?xml version="1.0" encoding="UTF-8"?>
<svg xmlns="http://www.w3.org/2000/svg" width="1134" height="286" viewBox="0 0 1134 286" role="img" aria-label="HDT's PAGE vector logo">
  <title>HDT's PAGE</title>
  <desc>Vectorized logo split into left-to-right letter and mark paths for staggered animation.</desc>
  <path id="logo-part-01" class="logo-part" data-letter="H" d="M 64.00 273.50 L 59.00 273.50 L 54.50 271.00 L 52.50 266.00 L 52.50 256.00 L 51.50 255.00 L 53.50 223.00 L 61.50 178.00 L 60.00 176.50 L 56.00 176.50 L 51.00 178.50 L 47.00 178.50 L 34.00 182.50 L 23.00 188.50 L 20.00 186.50 L 16.00 186.50 L 12.50 184.00 L 11.50 175.00 L 16.00 169.50 L 27.00 162.50 L 52.00 150.50 L 62.00 147.50 L 68.50 143.00 L 74.50 114.00 L 84.50 79.00 L 88.50 70.00 L 88.50 67.00 L 92.50 59.00 L 93.50 54.00 L 102.00 47.50 L 108.00 48.50 L 112.00 44.50 L 115.00 45.50 L 118.00 44.50 L 129.50 55.00 L 126.50 80.00 L 115.50 128.00 L 118.00 129.50 L 144.00 122.50 L 155.00 121.50 L 158.50 118.00 L 172.50 70.00 L 193.50 20.00 L 198.00 13.50 L 205.00 11.50 L 209.00 14.50 L 211.00 12.50 L 217.50 20.00 L 217.50 33.00 L 208.50 65.00 L 208.50 70.00 L 206.50 74.00 L 206.50 79.00 L 200.50 102.00 L 198.50 116.00 L 196.50 120.00 L 195.50 129.00 L 182.50 178.00 L 176.50 210.00 L 164.50 251.00 L 161.00 251.50 L 157.00 255.50 L 152.00 263.50 L 147.00 263.50 L 142.00 261.50 L 138.50 254.00 L 138.50 220.00 L 139.50 219.00 L 140.50 198.00 L 146.50 164.00 L 149.50 155.00 L 149.50 151.00 L 146.00 149.50 L 111.00 162.50 L 108.00 162.50 L 104.50 165.00 L 82.50 245.00 L 80.50 250.00 L 77.50 253.00 L 76.50 258.00 L 74.00 260.50 L 70.00 259.50 L 68.50 261.00 L 68.50 264.00 L 64.00 273.50 Z" fill="#118ae0" fill-rule="evenodd"/>
  <path id="logo-part-02" class="logo-part" data-letter="D" d="M 232.00 235.50 L 225.00 235.50 L 220.00 230.50 L 210.00 230.50 L 206.00 225.50 L 202.00 224.50 L 197.50 219.00 L 203.00 212.50 L 206.00 212.50 L 210.50 209.00 L 208.50 204.00 L 208.50 186.00 L 210.50 172.00 L 213.50 161.00 L 214.50 150.00 L 218.50 134.00 L 222.50 108.00 L 226.50 93.00 L 230.50 84.00 L 228.00 80.50 L 224.50 79.00 L 222.50 73.00 L 227.00 68.50 L 232.00 66.50 L 236.00 66.50 L 241.00 60.50 L 246.00 59.50 L 253.00 61.50 L 257.00 65.50 L 267.00 66.50 L 289.00 73.50 L 307.00 83.50 L 322.50 99.00 L 328.50 108.00 L 334.50 122.00 L 338.50 136.00 L 338.50 149.00 L 335.50 160.00 L 327.50 177.00 L 320.50 186.00 L 304.00 202.50 L 277.00 219.50 L 265.00 224.50 L 242.00 229.50 L 232.00 235.50 Z
    M 246.50 197.00 L 267.00 187.50 L 283.00 176.50 L 302.50 156.00 L 308.50 141.00 L 308.50 130.00 L 306.50 124.00 L 294.50 106.00 L 283.00 96.50 L 262.00 87.50 L 259.00 87.50 L 256.50 90.00 L 256.50 107.00 L 255.50 108.00 L 254.50 123.00 L 244.50 178.00 L 243.50 196.00 L 245.00 197.50 L 246.50 197.00 Z" fill="#118ae0" fill-rule="evenodd"/>
  <path id="logo-part-03" class="logo-part" data-letter="T" d="M 373.00 231.50 L 370.00 230.50 L 365.00 231.50 L 356.50 223.00 L 351.50 214.00 L 351.50 203.00 L 356.50 178.00 L 358.50 160.00 L 362.50 148.00 L 368.50 119.00 L 370.50 115.00 L 378.50 83.00 L 377.00 81.50 L 370.00 82.50 L 330.00 81.50 L 319.00 76.50 L 316.50 74.00 L 314.50 69.00 L 314.50 65.00 L 316.50 61.00 L 322.00 57.50 L 347.00 56.50 L 353.00 54.50 L 365.00 53.50 L 376.00 50.50 L 381.00 50.50 L 397.00 46.50 L 433.00 40.50 L 456.00 41.50 L 466.00 51.50 L 468.00 51.50 L 470.50 54.00 L 470.50 57.00 L 469.00 58.50 L 463.00 63.50 L 457.50 66.00 L 460.50 70.00 L 458.00 72.50 L 449.00 75.50 L 438.00 76.50 L 432.00 78.50 L 418.00 79.50 L 417.00 80.50 L 405.00 80.50 L 402.50 83.00 L 393.50 128.00 L 391.50 161.00 L 390.50 162.00 L 390.50 172.00 L 388.50 184.00 L 388.50 203.00 L 387.50 204.00 L 386.50 223.00 L 383.00 227.50 L 380.00 227.50 L 377.00 225.50 L 373.00 231.50 Z" fill="#118ae0" fill-rule="evenodd"/>
  <path id="logo-part-04" class="logo-part" data-letter="apostrophe" d="M 481.00 90.50 L 478.00 90.50 L 475.50 87.00 L 486.50 77.00 L 493.50 65.00 L 493.50 63.00 L 486.00 58.50 L 482.50 54.00 L 481.50 41.00 L 484.50 36.00 L 490.00 31.50 L 496.00 28.50 L 503.00 28.50 L 512.00 35.50 L 514.50 40.00 L 514.50 55.00 L 512.50 62.00 L 507.50 72.00 L 499.00 82.50 L 491.00 88.50 L 481.00 90.50 Z" fill="#118ae0" fill-rule="evenodd"/>
  <path id="logo-part-05" class="logo-part" data-letter="s" d="M 506.00 241.50 L 489.00 240.50 L 479.00 236.50 L 468.50 224.00 L 465.50 216.00 L 466.50 208.00 L 475.50 191.00 L 485.00 181.50 L 500.00 170.50 L 523.50 158.00 L 522.50 153.00 L 509.50 126.00 L 508.50 104.00 L 515.50 89.00 L 526.00 79.50 L 537.00 74.50 L 550.00 74.50 L 556.00 76.50 L 562.50 82.00 L 568.50 92.00 L 568.50 97.00 L 563.00 104.50 L 556.00 104.50 L 554.50 102.00 L 553.50 94.00 L 551.00 91.50 L 544.00 91.50 L 536.50 97.00 L 532.50 104.00 L 531.50 109.00 L 532.50 117.00 L 546.50 146.00 L 550.00 147.50 L 557.00 144.50 L 575.00 140.50 L 596.00 139.50 L 603.00 141.50 L 606.50 145.00 L 606.50 147.00 L 600.00 151.50 L 575.00 152.50 L 555.00 159.50 L 553.50 161.00 L 553.50 164.00 L 556.50 174.00 L 556.50 191.00 L 550.50 210.00 L 544.50 219.00 L 532.00 230.50 L 522.00 236.50 L 506.00 241.50 Z
    M 502.50 217.00 L 510.00 213.50 L 522.50 200.00 L 527.50 187.00 L 527.50 174.00 L 526.00 172.50 L 518.00 176.50 L 501.00 188.50 L 488.50 202.00 L 486.50 207.00 L 486.50 214.00 L 491.00 217.50 L 502.50 217.00 Z" fill="#118ae0" fill-rule="evenodd"/>
  <path id="logo-part-06" class="logo-part" data-letter="P" d="M 663.00 256.50 L 654.00 255.50 L 648.50 248.00 L 645.50 238.00 L 645.50 220.00 L 646.50 219.00 L 646.50 208.00 L 647.50 207.00 L 650.50 172.00 L 654.50 144.00 L 656.50 138.00 L 656.50 132.00 L 662.50 103.00 L 669.50 80.00 L 671.00 78.50 L 674.00 78.50 L 681.00 75.50 L 685.00 78.50 L 688.00 78.50 L 690.50 81.00 L 692.50 86.00 L 692.50 115.00 L 687.50 138.00 L 689.00 141.50 L 713.00 129.50 L 729.00 117.50 L 735.50 111.00 L 741.50 101.00 L 741.50 92.00 L 738.50 83.00 L 730.00 72.50 L 717.00 66.50 L 703.00 62.50 L 681.00 63.50 L 660.00 70.50 L 649.00 77.50 L 640.50 87.00 L 639.50 92.00 L 636.00 94.50 L 632.00 94.50 L 625.50 90.00 L 625.50 83.00 L 630.50 73.00 L 645.00 58.50 L 652.00 53.50 L 666.00 46.50 L 687.00 40.50 L 699.00 38.50 L 725.00 40.50 L 736.00 44.50 L 750.00 52.50 L 761.50 65.00 L 772.50 93.00 L 772.50 109.00 L 770.50 117.00 L 767.50 126.00 L 760.50 139.00 L 748.00 152.50 L 742.00 156.50 L 740.00 156.50 L 730.00 162.50 L 725.00 164.50 L 721.00 164.50 L 708.00 170.50 L 699.00 171.50 L 698.00 170.50 L 685.00 170.50 L 684.00 169.50 L 682.50 171.00 L 678.50 191.00 L 676.50 218.00 L 673.50 234.00 L 671.50 238.00 L 671.50 246.00 L 670.50 250.00 L 663.00 256.50 Z" fill="#118ae0" fill-rule="evenodd"/>
  <path id="logo-part-07" class="logo-part" data-letter="A" d="M 852.00 253.50 L 847.00 253.50 L 844.00 251.50 L 840.00 252.50 L 831.50 245.00 L 827.50 239.00 L 818.50 214.00 L 818.50 210.00 L 814.50 196.00 L 812.50 176.00 L 811.00 174.50 L 779.00 187.50 L 775.50 191.00 L 754.50 232.00 L 747.00 238.50 L 741.00 236.50 L 738.50 234.00 L 738.50 228.00 L 744.50 216.00 L 751.50 196.00 L 750.00 194.50 L 745.00 195.50 L 737.00 194.50 L 732.50 190.00 L 732.50 185.00 L 740.00 179.50 L 753.00 175.50 L 764.50 170.00 L 796.50 103.00 L 810.50 80.00 L 810.50 75.00 L 813.50 67.00 L 816.00 64.50 L 820.00 63.50 L 825.00 64.50 L 827.00 66.50 L 828.00 65.50 L 831.00 66.50 L 836.50 73.00 L 840.50 95.00 L 843.50 134.00 L 846.00 135.50 L 863.50 125.00 L 863.50 139.00 L 844.50 154.00 L 846.50 166.00 L 847.50 189.00 L 850.50 200.00 L 850.50 214.00 L 853.50 227.00 L 859.50 240.00 L 858.50 247.00 L 852.00 253.50 Z
    M 794.50 159.00 L 811.50 151.00 L 810.50 118.00 L 809.00 116.50 L 790.50 157.00 L 792.00 159.50 L 794.50 159.00 Z" fill="#118ae0" fill-rule="evenodd"/>
  <path id="logo-part-08" class="logo-part" data-letter="G" d="M 984.00 249.50 L 976.00 246.50 L 970.50 241.00 L 968.50 237.00 L 963.50 223.00 L 962.50 210.00 L 964.50 201.00 L 963.00 199.50 L 956.50 209.00 L 940.00 224.50 L 928.00 228.50 L 914.00 228.50 L 905.00 226.50 L 893.00 220.50 L 881.50 208.00 L 874.50 195.00 L 868.50 174.00 L 868.50 167.00 L 867.50 166.00 L 868.50 154.00 L 873.50 134.00 L 872.00 132.50 L 864.00 138.50 L 863.50 125.00 L 876.00 116.50 L 886.50 106.00 L 892.50 96.00 L 914.00 72.50 L 927.00 62.50 L 935.00 58.50 L 943.00 56.50 L 953.00 56.50 L 963.00 58.50 L 973.00 63.50 L 980.50 71.00 L 985.50 79.00 L 987.50 86.00 L 986.50 97.00 L 981.00 101.50 L 976.00 100.50 L 972.50 97.00 L 971.50 90.00 L 968.50 84.00 L 965.00 80.50 L 957.00 77.50 L 951.00 78.50 L 945.00 81.50 L 931.50 92.00 L 918.50 109.00 L 908.50 132.00 L 903.50 157.00 L 903.50 169.00 L 904.50 170.00 L 905.50 184.00 L 909.50 195.00 L 915.00 201.50 L 925.00 204.50 L 936.00 200.50 L 952.50 184.00 L 964.50 166.00 L 964.50 164.00 L 962.00 162.50 L 946.00 166.50 L 939.00 166.50 L 933.00 164.50 L 923.50 156.00 L 921.50 149.00 L 926.00 144.50 L 932.00 141.50 L 947.00 138.50 L 951.00 136.50 L 981.00 130.50 L 986.00 130.50 L 992.00 132.50 L 996.50 137.00 L 1000.50 144.00 L 1000.50 150.00 L 994.50 181.00 L 986.50 208.00 L 985.50 219.00 L 988.50 233.00 L 997.50 243.00 L 993.00 246.50 L 990.00 246.50 L 988.00 248.50 L 984.00 249.50 Z" fill="#118ae0" fill-rule="evenodd"/>
  <path id="logo-part-09" class="logo-part" data-letter="E" d="M 1052.00 221.50 L 1038.00 221.50 L 1024.00 217.50 L 1010.50 206.00 L 1007.50 199.00 L 1006.50 184.00 L 1010.50 170.00 L 1016.50 157.00 L 1023.50 147.00 L 1030.50 140.00 L 1022.50 133.00 L 1018.50 124.00 L 1018.50 113.00 L 1020.50 106.00 L 1032.50 83.00 L 1043.00 73.50 L 1054.00 68.50 L 1065.00 66.50 L 1088.00 59.50 L 1100.00 53.50 L 1105.00 56.50 L 1107.50 60.00 L 1108.50 62.00 L 1107.50 68.00 L 1102.00 73.50 L 1093.00 79.50 L 1079.00 86.50 L 1058.00 92.50 L 1046.50 108.00 L 1045.50 117.00 L 1047.00 118.50 L 1055.00 118.50 L 1075.00 110.50 L 1079.00 110.50 L 1086.00 114.50 L 1091.50 123.00 L 1089.50 130.00 L 1084.00 136.50 L 1072.00 142.50 L 1060.00 150.50 L 1040.50 171.00 L 1036.50 179.00 L 1034.50 189.00 L 1035.50 192.00 L 1039.00 195.50 L 1052.00 194.50 L 1058.00 192.50 L 1071.00 184.50 L 1085.00 178.50 L 1092.00 173.50 L 1104.00 168.50 L 1117.00 157.50 L 1119.00 157.50 L 1121.50 161.00 L 1121.50 165.00 L 1115.50 172.00 L 1114.50 180.00 L 1098.00 195.50 L 1071.00 214.50 L 1052.00 221.50 Z" fill="#118ae0" fill-rule="evenodd"/>
</svg>
